<?xml version="1.0" encoding="utf-8"?>
<!-- Generator: Adobe Illustrator 19.0.1, SVG Export Plug-In . SVG Version: 6.00 Build 0)  -->
<svg version="1.1" id="Layer_1" xmlns="http://www.w3.org/2000/svg" xmlns:xlink="http://www.w3.org/1999/xlink" x="0px" y="0px"
	 viewBox="0 0 166.3 32" style="enable-background:new 0 0 166.3 32;" xml:space="preserve">
<style type="text/css">
	.st0{fill:#417DC1;}
</style>
<g>
	<path class="st0" d="M0,12.9c0-1.8,0.3-3.5,0.8-5.1c0.5-1.6,1.3-2.9,2.3-4.1c1-1.2,2.2-2.1,3.7-2.7c1.5-0.7,3.1-1,5-1
		c1.4,0,2.7,0.2,3.8,0.6c1.1,0.4,2,0.9,2.7,1.4s1.3,1.2,1.8,1.8s0.8,1.3,1.1,1.9c0.2,0.6,0.4,1.1,0.5,1.5c0.1,0.4,0.1,0.7,0.1,0.7
		h-1.5c-0.2-1-0.5-2-1-2.8c-0.5-0.8-1.1-1.5-1.9-2.1c-0.8-0.6-1.6-1-2.5-1.3c-0.9-0.3-1.9-0.4-3-0.4c-1.6,0-3,0.3-4.3,0.9
		C6.2,2.9,5.1,3.7,4.2,4.7c-0.9,1-1.5,2.3-2,3.7c-0.5,1.4-0.7,2.9-0.7,4.5c0,1.6,0.2,3.1,0.7,4.5c0.5,1.4,1.1,2.6,2,3.7
		c0.9,1,1.9,1.9,3.2,2.5c1.3,0.6,2.7,0.9,4.3,0.9c1.2,0,2.3-0.2,3.4-0.7c1-0.5,2-1.2,2.7-2c0.8-0.8,1.4-1.8,1.9-2.8
		c0.5-1.1,0.7-2.2,0.8-3.3h1.5c-0.1,1.5-0.5,2.8-1.1,4.1c-0.6,1.2-1.3,2.3-2.2,3.2c-0.9,0.9-2,1.6-3.2,2.1c-1.2,0.5-2.5,0.8-3.8,0.8
		c-1.8,0-3.5-0.3-5-1c-1.5-0.7-2.7-1.6-3.7-2.7c-1-1.2-1.8-2.5-2.3-4.1C0.3,16.4,0,14.7,0,12.9z"/>
	<path class="st0" d="M24.2,16.4c0-1.3,0.2-2.5,0.5-3.6c0.4-1.1,0.9-2.1,1.6-3c0.7-0.9,1.5-1.5,2.6-2c1-0.5,2.2-0.7,3.5-0.7
		c1.3,0,2.5,0.2,3.5,0.7c1,0.5,1.9,1.2,2.6,2c0.7,0.9,1.2,1.8,1.6,3c0.4,1.1,0.5,2.3,0.5,3.6c0,1.3-0.2,2.5-0.5,3.6
		c-0.4,1.1-0.9,2.1-1.6,3c-0.7,0.8-1.5,1.5-2.6,2c-1,0.5-2.2,0.7-3.5,0.7c-1.3,0-2.5-0.2-3.5-0.7c-1-0.5-1.9-1.2-2.6-2
		c-0.7-0.8-1.2-1.8-1.6-3C24.3,18.8,24.2,17.6,24.2,16.4z M25.5,16.4c0,1.1,0.1,2.1,0.4,3.1c0.3,1,0.7,1.8,1.3,2.6
		c0.6,0.8,1.3,1.4,2.1,1.8c0.9,0.4,1.8,0.7,2.9,0.7c1.1,0,2.1-0.2,2.9-0.7c0.9-0.4,1.6-1.1,2.1-1.8c0.6-0.8,1-1.6,1.3-2.6
		c0.3-1,0.4-2,0.4-3.1c0-1.1-0.2-2.1-0.4-3.1c-0.3-1-0.7-1.8-1.3-2.6c-0.6-0.8-1.3-1.4-2.1-1.8c-0.9-0.4-1.8-0.7-2.9-0.7
		c-1.1,0-2.1,0.2-2.9,0.7c-0.9,0.4-1.6,1.1-2.1,1.8c-0.6,0.8-1,1.6-1.3,2.6C25.6,14.3,25.5,15.3,25.5,16.4z"/>
	<path class="st0" d="M45.2,0.6v24.6h-1.3V0.6H45.2z"/>
	<path class="st0" d="M48.5,16.4c0-1.3,0.2-2.5,0.5-3.6c0.4-1.1,0.9-2.1,1.6-3c0.7-0.9,1.5-1.5,2.6-2c1-0.5,2.2-0.7,3.5-0.7
		s2.5,0.2,3.5,0.7c1,0.5,1.9,1.2,2.6,2c0.7,0.9,1.2,1.8,1.6,3c0.4,1.1,0.5,2.3,0.5,3.6c0,1.3-0.2,2.5-0.5,3.6
		c-0.4,1.1-0.9,2.1-1.6,3c-0.7,0.8-1.5,1.5-2.6,2c-1,0.5-2.2,0.7-3.5,0.7s-2.5-0.2-3.5-0.7c-1-0.5-1.9-1.2-2.6-2
		c-0.7-0.8-1.2-1.8-1.6-3C48.7,18.8,48.5,17.6,48.5,16.4z M49.8,16.4c0,1.1,0.1,2.1,0.4,3.1c0.3,1,0.7,1.8,1.3,2.6
		c0.6,0.8,1.3,1.4,2.1,1.8c0.9,0.4,1.8,0.7,2.9,0.7c1.1,0,2.1-0.2,2.9-0.7c0.9-0.4,1.6-1.1,2.1-1.8c0.6-0.8,1-1.6,1.3-2.6
		c0.3-1,0.4-2,0.4-3.1c0-1.1-0.1-2.1-0.4-3.1c-0.3-1-0.7-1.8-1.3-2.6c-0.6-0.8-1.3-1.4-2.1-1.8c-0.9-0.4-1.8-0.7-2.9-0.7
		c-1.1,0-2.1,0.2-2.9,0.7c-0.9,0.4-1.6,1.1-2.1,1.8c-0.6,0.8-1,1.6-1.3,2.6C50,14.3,49.8,15.3,49.8,16.4z"/>
	<path class="st0" d="M69.2,11.4h0.1c0.2-0.6,0.5-1.1,0.9-1.6c0.4-0.5,0.9-0.9,1.6-1.3c0.6-0.4,1.3-0.6,2-0.8
		c0.7-0.2,1.5-0.3,2.3-0.3v1.3c-0.7-0.1-1.5,0-2.4,0.2c-0.9,0.2-1.7,0.7-2.5,1.5c-0.3,0.3-0.6,0.7-0.8,1c-0.2,0.3-0.4,0.7-0.6,1.1
		c-0.2,0.4-0.3,0.8-0.4,1.3c-0.1,0.5-0.1,1.1-0.2,1.7v9.7h-1.3V7.5h1.3V11.4z"/>
	<path class="st0" d="M91.7,7.5v16.8c0,1-0.1,1.9-0.3,2.9c-0.2,0.9-0.6,1.8-1.2,2.5c-0.6,0.7-1.3,1.3-2.3,1.7
		c-1,0.4-2.2,0.6-3.8,0.6c-0.9,0-1.8-0.1-2.7-0.3c-0.8-0.2-1.5-0.5-2.2-0.9c-0.6-0.4-1.1-1-1.5-1.7c-0.4-0.7-0.6-1.6-0.6-2.6h1.3
		c0.1,0.8,0.3,1.5,0.6,2c0.3,0.6,0.7,1,1.3,1.4c0.5,0.4,1.1,0.6,1.7,0.8c0.6,0.2,1.3,0.2,2.1,0.2c1.2,0,2.2-0.2,3.1-0.6
		c0.8-0.4,1.5-0.8,1.9-1.4c0.5-0.6,0.8-1.3,1-2c0.2-0.7,0.3-1.5,0.3-2.3v-4.1h-0.1c-0.6,1.3-1.5,2.3-2.5,3c-1.1,0.7-2.4,1-3.9,1
		c-1.3,0-2.4-0.2-3.4-0.7c-1-0.4-1.7-1.1-2.4-1.9c-0.6-0.8-1.1-1.7-1.4-2.8c-0.3-1.1-0.5-2.2-0.5-3.5c0-1.2,0.2-2.3,0.5-3.3
		c0.3-1.1,0.8-2,1.5-2.8c0.6-0.8,1.4-1.4,2.4-1.9c1-0.5,2.1-0.7,3.3-0.7c1.4,0,2.7,0.4,3.9,1.1c1.2,0.7,2,1.7,2.5,3h0.1V7.5H91.7z
		 M83.9,8.2c-1.1,0-2,0.2-2.8,0.7c-0.8,0.4-1.4,1-2,1.7c-0.5,0.7-0.9,1.5-1.2,2.4c-0.3,0.9-0.4,1.8-0.4,2.8c0,1,0.1,2,0.4,3
		s0.7,1.7,1.2,2.4c0.5,0.7,1.2,1.2,2,1.6c0.8,0.4,1.7,0.6,2.7,0.6c1.1,0,2-0.2,2.8-0.6c0.8-0.4,1.5-1,2-1.7c0.5-0.7,0.9-1.5,1.2-2.4
		c0.3-0.9,0.4-1.9,0.4-2.9c0-1-0.1-1.9-0.4-2.9c-0.3-0.9-0.7-1.7-1.2-2.4c-0.5-0.7-1.2-1.3-2-1.7C85.9,8.4,85,8.2,83.9,8.2z"/>
	<path class="st0" d="M94.8,16.4c0-1.3,0.2-2.5,0.5-3.6c0.4-1.1,0.9-2.1,1.6-3c0.7-0.9,1.5-1.5,2.6-2c1-0.5,2.2-0.7,3.5-0.7
		s2.5,0.2,3.5,0.7c1,0.5,1.9,1.2,2.6,2c0.7,0.9,1.2,1.8,1.6,3c0.4,1.1,0.5,2.3,0.5,3.6c0,1.3-0.2,2.5-0.5,3.6
		c-0.4,1.1-0.9,2.1-1.6,3c-0.7,0.8-1.5,1.5-2.6,2c-1,0.5-2.2,0.7-3.5,0.7s-2.5-0.2-3.5-0.7c-1-0.5-1.9-1.2-2.6-2
		c-0.7-0.8-1.2-1.8-1.6-3C94.9,18.8,94.8,17.6,94.8,16.4z M96.1,16.4c0,1.1,0.1,2.1,0.4,3.1c0.3,1,0.7,1.8,1.3,2.6
		c0.6,0.8,1.3,1.4,2.1,1.8c0.9,0.4,1.8,0.7,2.9,0.7c1.1,0,2.1-0.2,2.9-0.7c0.9-0.4,1.6-1.1,2.1-1.8c0.6-0.8,1-1.6,1.3-2.6
		c0.3-1,0.4-2,0.4-3.1c0-1.1-0.1-2.1-0.4-3.1c-0.3-1-0.7-1.8-1.3-2.6c-0.6-0.8-1.3-1.4-2.1-1.8c-0.9-0.4-1.8-0.7-2.9-0.7
		c-1.1,0-2.1,0.2-2.9,0.7c-0.9,0.4-1.6,1.1-2.1,1.8c-0.6,0.8-1,1.6-1.3,2.6C96.2,14.3,96.1,15.3,96.1,16.4z"/>
	<path class="st0" d="M115.4,11.4h0.1c0.2-0.6,0.5-1.1,0.9-1.6c0.4-0.5,0.9-0.9,1.6-1.3c0.6-0.4,1.3-0.6,2-0.8
		c0.7-0.2,1.5-0.3,2.3-0.3v1.3c-0.7-0.1-1.5,0-2.4,0.2c-0.9,0.2-1.7,0.7-2.5,1.5c-0.3,0.3-0.6,0.7-0.8,1c-0.2,0.3-0.4,0.7-0.6,1.1
		c-0.2,0.4-0.3,0.8-0.4,1.3c-0.1,0.5-0.1,1.1-0.2,1.7v9.7h-1.3V7.5h1.3V11.4z"/>
	<path class="st0" d="M124,4.1V0.6h1.3v3.6H124z M124,25.2V7.5h1.3v17.7H124z"/>
	<path class="st0" d="M142.9,13c-0.1-0.8-0.3-1.5-0.6-2.1c-0.3-0.6-0.8-1.1-1.3-1.5c-0.5-0.4-1.1-0.7-1.8-0.9
		c-0.7-0.2-1.5-0.3-2.3-0.3c-1.1,0-2.1,0.2-2.9,0.7s-1.6,1-2.1,1.8c-0.6,0.7-1,1.6-1.3,2.6c-0.3,1-0.4,1.9-0.4,3
		c0,1.2,0.1,2.3,0.4,3.3c0.3,1,0.7,1.9,1.3,2.6c0.6,0.7,1.3,1.3,2.1,1.7c0.9,0.4,1.9,0.6,3,0.6c0.8,0,1.6-0.1,2.3-0.4
		c0.7-0.3,1.3-0.7,1.9-1.1c0.5-0.5,1-1.1,1.3-1.7c0.3-0.7,0.6-1.4,0.7-2.2h1.3c-0.1,1.1-0.4,2-0.9,2.8c-0.4,0.8-1,1.5-1.7,2.1
		c-0.7,0.6-1.4,1-2.3,1.3c-0.9,0.3-1.7,0.4-2.7,0.4c-1.5,0-2.7-0.3-3.7-0.8c-1-0.5-1.9-1.2-2.5-2.1c-0.7-0.9-1.1-1.9-1.4-3
		c-0.3-1.1-0.5-2.3-0.5-3.6c0-1.2,0.2-2.4,0.5-3.5c0.4-1.1,0.9-2.1,1.6-2.9c0.7-0.8,1.5-1.5,2.6-2c1-0.5,2.2-0.7,3.5-0.7
		c1,0,1.9,0.1,2.7,0.4c0.8,0.2,1.6,0.6,2.2,1.1c0.7,0.5,1.2,1.1,1.6,1.8c0.4,0.7,0.7,1.6,0.8,2.6H142.9z"/>
	<path class="st0" d="M159.2,21.7L159.2,21.7c-0.3,0.5-0.6,1-1,1.5c-0.4,0.5-0.9,0.9-1.4,1.3c-0.6,0.4-1.2,0.7-1.9,0.9
		c-0.7,0.2-1.5,0.3-2.3,0.3c-1.9,0-3.3-0.4-4.4-1.2c-1-0.8-1.6-2.1-1.6-3.8c0-1,0.2-1.9,0.6-2.5c0.4-0.7,0.9-1.2,1.6-1.6
		s1.3-0.6,2.1-0.8c0.8-0.2,1.5-0.3,2.2-0.3l2-0.2c0.9-0.1,1.7-0.2,2.2-0.3c0.5-0.1,0.9-0.4,1.2-0.6c0.3-0.3,0.4-0.6,0.5-1
		c0.1-0.4,0.1-0.9,0.1-1.6c0-0.5-0.1-0.9-0.3-1.3c-0.2-0.4-0.5-0.8-0.9-1.1c-0.4-0.3-0.9-0.6-1.5-0.8c-0.6-0.2-1.4-0.3-2.3-0.3
		c-1.6,0-2.9,0.4-3.8,1.2c-1,0.8-1.5,2-1.6,3.6h-1.3c0.1-2,0.7-3.4,1.9-4.4c1.2-1,2.8-1.5,5-1.5c2.1,0,3.7,0.4,4.7,1.3
		c1,0.8,1.5,1.9,1.5,3.3V22c0,0.3,0,0.5,0,0.8c0,0.3,0.1,0.5,0.1,0.7c0.1,0.2,0.2,0.4,0.3,0.5c0.2,0.1,0.4,0.2,0.7,0.2
		c0.2,0,0.6,0,1-0.1v1.1c-0.3,0.1-0.7,0.1-1.1,0.1c-0.5,0-0.9-0.1-1.3-0.2c-0.3-0.1-0.5-0.3-0.7-0.6c-0.2-0.2-0.3-0.5-0.3-0.8
		c-0.1-0.3-0.1-0.6-0.1-1V21.7z M159.2,15.2c-0.3,0.4-0.8,0.7-1.5,0.8c-0.7,0.1-1.4,0.2-2.2,0.3l-2.2,0.2c-0.6,0.1-1.3,0.2-1.9,0.3
		c-0.6,0.1-1.2,0.3-1.7,0.6c-0.5,0.3-0.9,0.7-1.3,1.2c-0.3,0.5-0.5,1.2-0.5,2c0,1.3,0.4,2.3,1.2,2.9c0.8,0.6,2,0.9,3.4,0.9
		c1.5,0,2.7-0.3,3.6-0.8c0.9-0.5,1.5-1.2,2-1.9c0.5-0.7,0.8-1.4,0.9-2c0.1-0.7,0.2-1.1,0.2-1.3V15.2z"/>
	<path class="st0" d="M166.3,0.6v24.6H165V0.6H166.3z"/>
</g>
</svg>
