<?xml version="1.0" encoding="utf-8"?>
<!-- Generator: Adobe Illustrator 20.1.0, SVG Export Plug-In . SVG Version: 6.00 Build 0)  -->
<svg version="1.1" id="Layer_1" xmlns="http://www.w3.org/2000/svg" xmlns:xlink="http://www.w3.org/1999/xlink" x="0px" y="0px"
	 viewBox="0 0 601 101" style="enable-background:new 0 0 601 101;" xml:space="preserve">
<style type="text/css">
	.st0{fill:none;}
	.st1{fill:#56EBD3;stroke:#FFFFFF;}
	.st2{fill:#3444BC;stroke:#FFFFFF;}
	.st3{fill:#A1DEF0;stroke:#FFFFFF;}
	.st4{fill:#115D52;stroke:#FFFFFF;}
	.st5{fill:#A8A2F4;stroke:#FFFFFF;}
	.st6{fill:#0BA47E;stroke:#FFFFFF;}
	.st7{fill:#3D99CE;stroke:#FFFFFF;}
	.st8{fill:#155392;stroke:#FFFFFF;}
</style>
<polygon class="st0" points="594.5,64 598.3,55.7 598.4,55.4 596.5,57.9 594.1,57.3 593.7,63.3 594.2,69.2 596.6,68.9 600.5,66.1 
	600.5,64.5 597.1,67.8 "/>
<polygon class="st0" points="598.3,52.2 598.7,53.5 599.1,51.3 596.3,48.3 598,50.4 "/>
<polygon class="st1" points="87.9,1 88.1,0.5 79.6,0.5 79.6,0.9 "/>
<polygon class="st2" points="222.4,0.5 211,0.5 211,1 "/>
<polygon class="st3" points="36.6,7.5 43.6,6.1 43.7,0.5 31.7,0.5 31.6,7.4 "/>
<polygon class="st4" points="88.8,6.4 91.2,7.2 104.1,7.2 102.5,3.8 102.5,0.5 88.1,0.5 87.9,1 "/>
<polygon class="st5" points="196.2,4.8 199.2,4.7 199,0.5 186.9,0.5 187.1,5.2 "/>
<polygon class="st3" points="136.7,6.9 148.4,6.3 147.9,0.5 135.6,0.5 135.6,3.5 "/>
<polygon class="st2" points="104.1,7.2 113,7.2 115.9,7.1 114.6,3.7 114.5,0.5 102.5,0.5 102.5,3.8 "/>
<polygon class="st6" points="115.9,7.1 124.8,7.1 123.6,3.5 123.5,0.5 114.5,0.5 114.6,3.7 "/>
<polygon class="st2" points="184.1,5.3 187.1,5.2 186.9,0.5 174.9,0.5 175.2,5.7 "/>
<polygon class="st1" points="160.4,6.8 160.3,6.2 160,0.5 147.9,0.5 148.4,6.3 "/>
<polygon class="st1" points="172.2,5.8 175.2,5.7 174.9,0.5 160,0.5 160.3,6.2 "/>
<polygon class="st4" points="124.8,7.1 136.7,6.9 135.6,3.5 135.6,0.5 123.5,0.5 123.6,3.5 "/>
<polygon class="st3" points="207.2,4.3 208.3,7.3 211.3,7.2 211,1 211,0.5 199,0.5 199.2,4.7 "/>
<polygon class="st5" points="226.3,5.4 219.8,6.9 219.2,10 219.2,10 235.7,9.3 235.5,4.7 241.4,1.4 241.5,0.5 236.7,0.5 229.7,4.9 
	"/>
<polygon class="st3" points="229.7,4.9 236.7,0.5 226.1,0.5 226.3,5.4 "/>
<polygon class="st4" points="330.5,3.4 331.7,0.5 326.4,0.5 326.9,5.4 "/>
<polygon class="st5" points="60.4,11.6 67.5,8.9 67.6,0.5 58.7,0.5 58.5,11.3 "/>
<polygon class="st7" points="46.9,6.1 46.8,10.7 49.5,10.8 49.5,13 55.5,10.8 58.5,11.3 58.7,0.5 43.7,0.5 43.6,6.1 "/>
<polygon class="st2" points="67.5,9 76.3,9.7 78.8,11.2 82.5,11.2 79.5,6.6 79.6,0.9 79.6,0.5 67.6,0.5 67.5,8.9 "/>
<polygon class="st5" points="19.8,10.1 31.5,10.4 31.6,7.4 31.7,0.5 19.8,0.5 19.6,10.1 "/>
<polygon class="st4" points="7.3,22 7.9,9.8 8,0.5 0.5,0.5 0.5,21.7 1.6,21.8 "/>
<polygon class="st7" points="19.6,10.1 19.8,0.5 8,0.5 7.9,9.8 "/>
<polygon class="st2" points="292.9,9.7 298.9,9 298.6,6 311.2,4.7 310.9,0.5 291.9,0.5 291.9,0.5 "/>
<polygon class="st7" points="291.9,0.5 291.9,0.5 283,0.5 283.1,1.5 "/>
<polygon class="st3" points="311.6,9.3 314.6,9.2 318,6.9 319.4,6 318.8,0.5 310.9,0.5 311.2,4.7 "/>
<polygon class="st7" points="321.5,4.2 326.9,5.4 326.4,0.5 318.8,0.5 319.4,6 "/>
<polygon class="st6" points="91.2,7.2 88.8,6.4 87.9,1 79.6,0.9 79.5,6.6 82.5,11.2 92.7,11.3 "/>
<polygon class="st8" points="269.3,14.9 272.3,14.7 272.7,21 275.8,20.7 275.3,14.4 284.3,13.7 283.1,1.5 283,0.5 268.2,0.5 
	268.7,7.7 "/>
<polygon class="st5" points="211.3,7.2 211.4,10.3 219.2,10 219.8,6.9 226.3,5.4 226.1,0.5 222.4,0.5 211,1 "/>
<polygon class="st7" points="256.6,11.3 256.8,14.2 261.3,13.9 261.1,10.9 263.9,10.8 264.3,8.4 268.7,7.7 268.2,0.5 250.1,0.5 
	250.9,11.6 "/>
<polygon class="st4" points="235.5,4.7 235.7,9.3 236,15.5 247.8,14.8 250.8,14.6 250.9,11.6 250.1,0.5 241.5,0.5 241.4,1.4 "/>
<polygon class="st3" points="364.6,0.5 362,0.5 362.8,0.7 "/>
<polygon class="st2" points="31.8,15 37.6,14.1 46.7,13.7 46.8,10.7 46.9,6.1 43.6,6.1 36.6,7.5 31.6,7.4 31.5,10.4 31.7,10.4 "/>
<polygon class="st4" points="202.7,16.8 208.7,16.5 208.3,7.3 207.2,4.3 199.2,4.7 196.2,4.8 196.7,17 "/>
<polygon class="st5" points="154.7,18.5 160.7,18.4 160.4,6.8 148.4,6.3 148.7,18.7 "/>
<polygon class="st5" points="190.6,17.3 196.7,17 196.2,4.8 187.1,5.2 184.1,5.3 184.6,17.6 "/>
<polygon class="st3" points="142.8,19 148.7,18.7 148.4,6.3 136.7,6.9 136.9,19.1 "/>
<polygon class="st6" points="178.6,17.8 184.6,17.6 184.1,5.3 175.2,5.7 172.2,5.8 172.6,18 "/>
<polygon class="st6" points="166.7,18.2 172.6,18 172.2,5.8 160.3,6.2 160.4,6.8 160.7,18.4 "/>
<polygon class="st1" points="93.9,13.7 93.1,18.3 94.2,19.4 107.1,19.3 113.1,19.3 113,7.2 104.1,7.2 91.2,7.2 92.7,11.3 "/>
<polygon class="st5" points="119,19.3 124.9,19.2 124.8,7.1 115.9,7.1 113,7.2 113.1,19.3 "/>
<polygon class="st6" points="130.9,19.2 136.9,19.1 136.7,6.9 124.8,7.1 124.9,19.2 "/>
<polygon class="st7" points="349.2,5.5 349.8,5.4 349.2,0.5 338.5,0.5 339.1,6.5 "/>
<polygon class="st3" points="292.9,9.7 291.9,0.5 283.1,1.5 284.3,13.7 292.9,12.8 "/>
<polygon class="st5" points="67.3,23.3 67.3,23.3 67.5,9 67.5,8.9 60.4,11.6 58.5,11.3 55.5,10.8 55.3,23.1 "/>
<polygon class="st4" points="78.9,23.4 78.9,24.4 82.7,23.4 82.5,18.3 78.8,11.2 76.3,9.7 67.5,9 67.3,23.3 "/>
<polygon class="st1" points="349.2,5.5 349.6,8.5 353.1,9.6 359.9,8.8 359.8,0.5 349.2,0.5 349.8,5.4 "/>
<polygon class="st6" points="326.9,5.4 327.1,7.7 339.1,6.5 338.5,0.5 331.7,0.5 330.5,3.4 "/>
<polygon class="st6" points="394.8,0.5 394.1,0.5 394.2,0.6 "/>
<polygon class="st6" points="211.7,16.4 211.8,19.5 222.8,19 221.6,16.1 218.2,13.3 219.2,10 219.2,10 211.4,10.3 211.3,7.2 
	208.3,7.3 208.7,16.5 "/>
<polygon class="st3" points="43.4,22.9 55.3,23.1 55.5,10.8 49.5,13 43.4,18.5 "/>
<polygon class="st3" points="37.6,14.1 31.8,15 31.7,10.4 31.3,22.7 31.3,28.8 38.3,22.1 43.4,18.5 49.5,13 49.5,10.8 46.8,10.7 
	46.7,13.7 "/>
<polygon class="st8" points="20,22.4 31.3,22.7 31.7,10.4 31.5,10.4 19.8,10.1 19.3,22.3 "/>
<polygon class="st2" points="19.8,10.1 19.6,10.1 7.9,9.8 7.3,22 19.3,22.3 "/>
<polygon class="st4" points="93.1,18.3 93.9,13.7 92.7,11.3 82.5,11.2 78.8,11.2 82.5,18.3 "/>
<polygon class="st3" points="221.6,16.1 222.8,19 222.8,19 227.1,18.9 236.1,18.5 236,15.5 235.7,9.3 219.2,10 218.2,13.3 "/>
<polygon class="st2" points="269.3,14.9 268.7,7.7 264.3,8.4 263.9,10.8 261.1,10.9 261.3,13.9 264.2,15.3 "/>
<polygon class="st1" points="293.4,17 296.4,16.6 312.1,14.8 311.6,9.3 311.2,4.7 298.6,6 298.9,9 292.9,9.7 292.9,12.8 "/>
<polygon class="st6" points="361.1,10.2 369.1,9.2 368.8,0.5 364.6,0.5 362.8,0.7 362,0.5 359.8,0.5 359.9,8.8 "/>
<polygon class="st8" points="434.1,1.3 436.8,1 440.6,0.5 433.9,0.5 "/>
<polygon class="st8" points="324.2,23.4 323.8,19.8 326.7,19.5 328,16.8 327.1,7.7 326.9,5.4 321.5,4.2 319.4,6 318,6.9 319.8,23.8 
	"/>
<polygon class="st7" points="369.4,12.3 376.2,11.5 383.3,10.5 383,8.2 382.1,0.5 368.8,0.5 369.1,9.2 "/>
<polygon class="st4" points="426.8,2.5 434.1,1.3 433.9,0.5 418.4,0.5 418.8,3.6 "/>
<polygon class="st4" points="393.4,6.9 394.9,6.7 394.2,0.6 394.1,0.5 382.1,0.5 383,8.2 "/>
<polygon class="st2" points="257.2,20.4 256.8,14.2 256.6,11.3 250.9,11.6 250.8,14.6 247.8,14.8 248.2,20.9 "/>
<polygon class="st1" points="313,24.4 319.8,23.8 318,6.9 314.6,9.2 311.6,9.3 312.1,14.8 "/>
<polygon class="st5" points="90.2,22.7 94.2,23.1 94.2,19.4 93.1,18.3 82.5,18.3 82.7,23.4 85.6,25.2 "/>
<polygon class="st5" points="347.8,14.9 347.5,11.9 353.2,11.2 353.1,9.6 349.6,8.5 349.2,5.5 339.1,6.5 340,15.7 "/>
<polygon class="st6" points="31.3,34.9 43.2,35.2 43.4,22.9 43.4,18.5 38.3,22.1 31.3,28.8 31.2,34.9 "/>
<polygon class="st6" points="337,16 340,15.7 339.1,6.5 327.1,7.7 328,16.8 "/>
<polygon class="st2" points="513.9,0.5 504.9,0.5 505.2,1.9 "/>
<polygon class="st1" points="525.7,0.5 517.9,0.5 524.1,3.8 "/>
<polygon class="st5" points="407.7,11.2 417.1,10 418.8,3.6 418.4,0.5 406.3,0.5 407.2,7.6 "/>
<polygon class="st6" points="394.9,6.7 393.4,6.9 395.5,11.3 401.5,10.5 401.3,8.9 407.2,7.6 406.3,0.5 394.8,0.5 394.2,0.6 "/>
<polygon class="st7" points="203,26 202.7,16.8 196.7,17 190.6,17.3 191,26.5 "/>
<polygon class="st6" points="203.2,29.1 211.3,28.7 212.3,28.7 211.8,19.5 211.7,16.4 208.7,16.5 202.7,16.8 203,26 "/>
<polygon class="st1" points="191,26.5 190.6,17.3 184.6,17.6 178.6,17.8 179,27 "/>
<polygon class="st7" points="155,27.8 154.7,18.5 148.7,18.7 142.8,19 143,28.1 "/>
<polygon class="st7" points="167,27.4 166.7,18.2 160.7,18.4 154.7,18.5 155,27.8 "/>
<polygon class="st2" points="179,27 178.6,17.8 172.6,18 166.7,18.2 167,27.4 "/>
<polygon class="st1" points="95.9,28.5 107.1,28.4 107.1,19.3 94.2,19.4 94.2,23.1 "/>
<polygon class="st5" points="119.1,28.4 119,19.3 113.1,19.3 107.1,19.3 107.1,28.4 "/>
<polygon class="st2" points="131.1,28.2 130.9,19.2 124.9,19.2 119,19.3 119.1,28.4 "/>
<polygon class="st7" points="143,28.1 142.8,19 136.9,19.1 130.9,19.2 131.1,28.2 "/>
<polygon class="st1" points="236.7,30.8 248.7,30.2 248.2,20.9 247.8,14.8 236,15.5 236.1,18.5 "/>
<polygon class="st2" points="262.2,20.1 261.7,21.9 272.7,21 272.3,14.7 269.3,14.9 264.2,15.3 261.3,13.9 256.8,14.2 257.2,20.4 
	"/>
<polygon class="st7" points="285.3,26 285.9,30.9 288.9,30.6 294.8,30.1 293.4,17 292.9,12.8 284.3,13.7 275.3,14.4 275.8,20.7 
	276.3,26.8 "/>
<polygon class="st2" points="211.3,28.7 219.3,32.4 219.6,27.9 222.8,24.1 222.8,19 222.8,19 211.8,19.5 212.3,28.7 "/>
<polygon class="st6" points="219.6,27.9 219.3,32.4 217.4,34.6 224.8,34.1 227.8,34.1 227.1,18.9 222.8,19 222.8,24.1 "/>
<polygon class="st2" points="236.9,33.9 236.7,30.8 236.1,18.5 227.1,18.9 227.8,34.1 "/>
<polygon class="st2" points="448.1,8.9 449,14.9 452,14 451.5,10.6 454,10.2 452.5,0.5 444.5,0.5 445.6,5.7 "/>
<polygon class="st8" points="95.4,32.6 95.9,28.5 94.2,23.1 90.2,22.7 85.6,25.2 82.7,23.4 78.9,24.4 78.9,32.6 "/>
<polygon class="st4" points="43.2,35.2 55.2,35.4 55.3,23.1 43.4,22.9 43.2,35.2 "/>
<polygon class="st2" points="31.3,28.8 31.3,22.7 20,22.4 19.7,34.6 31.2,34.9 "/>
<polygon class="st3" points="1.6,21.8 0.5,21.7 0.5,34.9 1.4,35 "/>
<polygon class="st1" points="19.6,34.9 19.7,34.6 20,22.4 19.3,22.3 7.3,22 1.6,21.8 1.4,35 7.6,35.5 14.8,36.1 "/>
<rect x="55.1" y="23.4" transform="matrix(1.496659e-02 -0.9999 0.9999 1.496659e-02 30.9738 90.101)" class="st1" width="12.3" height="11.9"/>
<polygon class="st8" points="67.1,41.7 78.9,41.8 78.9,32.6 78.9,24.4 78.9,23.4 67.3,23.3 67.3,23.3 67.1,35.5 "/>
<polygon class="st8" points="354.7,23.3 356.7,23.1 362.6,22.4 361.1,10.2 359.9,8.8 353.1,9.6 353.2,11.2 "/>
<polygon class="st5" points="303,34.1 313.7,33 313,24.4 312.1,14.8 296.4,16.6 298.3,34.5 "/>
<polygon class="st1" points="367.5,21.9 370.5,21.5 369.4,12.3 369.1,9.2 361.1,10.2 362.6,22.4 "/>
<polygon class="st1" points="357,26.1 356.7,23.1 354.7,23.3 353.2,11.2 347.5,11.9 347.8,14.9 349.2,27.1 "/>
<polygon class="st5" points="428.2,12.6 434.8,11.6 438.1,10.9 436.8,1 434.1,1.3 426.8,2.5 "/>
<polygon class="st6" points="303.4,37.2 303,34.1 298.3,34.5 296.4,16.6 293.4,17 294.8,30.1 288.9,30.6 289.5,38.3 "/>
<polygon class="st3" points="438.1,10.9 440.7,10.6 441.6,16.2 449,14.9 448.1,8.9 445.6,5.7 444.5,0.5 440.6,0.5 436.8,1 "/>
<polygon class="st4" points="420.2,14.2 428.2,12.6 426.8,2.5 418.8,3.6 417.1,10 418.2,14 "/>
<polygon class="st1" points="466.3,8.3 465.2,0.5 452.5,0.5 454,10.2 "/>
<polygon class="st3" points="393.1,16.2 393.3,17.7 394.8,17.6 394.2,13 395.5,11.3 393.4,6.9 383,8.2 383.3,10.5 384.1,17.3 "/>
<polygon class="st8" points="466.5,9.5 475,7.6 476.7,4.7 480.6,4 480,0.5 465.2,0.5 466.3,8.3 "/>
<polygon class="st2" points="251.9,33.1 252.2,37 257,35.3 259.9,28.2 261.7,21.9 262.2,20.1 257.2,20.4 248.2,20.9 248.7,30.2 
	248.8,33.2 "/>
<polygon class="st4" points="485,3.3 487.1,7.5 492.3,7.3 495.8,4.7 495.1,0.5 480,0.5 480.6,4 "/>
<polygon class="st1" points="259.9,28.2 265.8,27.7 266.2,32.4 267.8,33 271.3,32.7 275.1,30 276.3,26.8 275.8,20.7 272.7,21 
	261.7,21.9 "/>
<polygon class="st5" points="384.7,22.8 384.1,17.3 383.3,10.5 376.2,11.5 377.8,23.7 "/>
<polygon class="st5" points="394.8,17.6 399.3,17 402.5,18.1 408.5,17.3 407.7,11.2 407.2,7.6 401.3,8.9 401.5,10.5 395.5,11.3 
	394.2,13 "/>
<polygon class="st8" points="367.5,21.9 367.9,24.9 374.3,24.2 377.8,23.7 376.2,11.5 369.4,12.3 370.5,21.5 "/>
<polygon class="st7" points="333.3,28.7 333.3,22.5 337.7,22.1 337,16 328,16.8 326.7,19.5 323.8,19.8 324.2,23.4 324.8,29.5 "/>
<polygon class="st4" points="339.3,23.5 343.2,23.1 343.7,27.7 349.2,27.1 347.8,14.9 340,15.7 337,16 337.7,22.1 "/>
<polygon class="st8" points="526,6.1 532.5,6.5 534.2,7.8 537.3,6.2 538.4,0.5 525.7,0.5 524.1,3.8 "/>
<polygon class="st1" points="97.2,39.6 107.5,39.7 107.1,28.4 95.9,28.5 95.4,32.6 94.1,33.9 "/>
<polygon class="st4" points="112,39.8 119.6,39.8 119.1,28.4 107.1,28.4 107.5,39.7 "/>
<polygon class="st1" points="127,39.9 131.2,39.8 131.1,28.2 119.1,28.4 119.6,39.8 "/>
<polygon class="st1" points="197.6,36.6 203.6,36.6 203.2,29.1 203,26 191,26.5 191.4,37.1 "/>
<polygon class="st3" points="186.9,37.4 191.4,37.1 191,26.5 179,27 179.4,37.9 "/>
<polygon class="st1" points="137.5,39.7 143.2,39.5 143,28.1 131.1,28.2 131.2,39.8 "/>
<polygon class="st4" points="149.6,39.2 155.3,39 155,27.8 143,28.1 143.2,39.5 "/>
<polygon class="st2" points="160.1,38.8 167.3,38.5 167,27.4 155,27.8 155.3,39 "/>
<polygon class="st8" points="177.4,38 179.4,37.9 179,27 167,27.4 167.3,38.5 "/>
<polygon class="st4" points="496.7,10.3 500.8,9.6 504.8,4.3 505.2,1.9 504.9,0.5 495.1,0.5 495.8,4.7 "/>
<polygon class="st2" points="569.1,0.9 569.3,0.5 565,0.5 564.8,1 "/>
<polygon class="st5" points="408.9,21 418.5,21 421.1,20.6 420.2,14.2 418.2,14 417.1,10 407.7,11.2 408.5,17.3 "/>
<polygon class="st3" points="211.7,44 213.1,43.1 211.8,37.9 213.1,35.9 217.4,34.6 219.3,32.4 211.3,28.7 203.2,29.1 203.6,36.6 
	"/>
<polygon class="st6" points="98.7,41.8 97.2,39.6 94.1,33.9 95.4,32.6 78.9,32.6 78.9,41.8 89.3,41.8 "/>
<polygon class="st5" points="271.7,43.8 286.8,42.7 289.9,42.4 289.5,38.3 288.9,30.6 285.9,30.9 285.3,26 276.3,26.8 275.1,30 
	271.3,32.7 267.8,33 268.6,42.5 "/>
<polygon class="st8" points="252.2,37 250.9,39.8 256.4,39.4 256.7,43.5 259.7,43.3 268.6,42.5 267.8,33 266.2,32.4 265.8,27.7 
	259.9,28.2 257,35.3 "/>
<polygon class="st8" points="557.6,8.6 560.6,10.2 568.3,12.4 571.1,4.6 569.1,0.9 564.8,1 565,0.5 558.3,0.5 556.5,6.2 "/>
<polygon class="st7" points="546.9,6.9 551.9,9 551.9,6.9 556.1,8.2 556.5,6.2 558.3,0.5 547.9,0.5 548.1,5.1 "/>
<polygon class="st1" points="313.8,33.5 325.1,32.5 324.8,29.5 324.2,23.4 319.8,23.8 313,24.4 313.7,33 "/>
<polygon class="st4" points="335.7,33 344.1,32.2 343.7,27.7 343.2,23.1 339.3,23.5 337.7,22.1 333.3,22.5 333.3,28.7 335.3,28.5 
	"/>
<polygon class="st2" points="477.5,15 486,13.9 485.8,9.3 487.1,7.5 485,3.3 480.6,4 476.7,4.7 475,7.6 476.9,10.4 "/>
<polygon class="st4" points="395.2,29.2 395.3,29.2 394.7,29.1 393.3,17.7 393.1,16.2 384.1,17.3 384.7,22.8 385.6,30.4 "/>
<polygon class="st8" points="535.9,10.4 540.3,10.9 546.5,10 546.9,6.9 548.1,5.1 547.9,0.5 538.4,0.5 537.3,6.2 "/>
<polygon class="st3" points="237.5,46.2 237.6,49.3 244.3,49.1 247.5,45 248,42.3 250.9,39.8 252.2,37 251.9,33.1 248.8,33.2 
	248.7,30.2 236.7,30.8 236.9,33.9 "/>
<polygon class="st8" points="432.5,14.1 433.2,19.4 431.8,21.7 434.6,24 439.4,23.6 442,23.4 441.6,16.2 440.7,10.6 438.1,10.9 
	434.8,11.6 "/>
<polygon class="st8" points="421.1,20.6 425.6,19.9 425.8,22.1 431.8,21.7 433.2,19.4 432.5,14.1 434.8,11.6 428.2,12.6 420.2,14.2 
	"/>
<polygon class="st6" points="31.3,34.9 31.2,34.9 19.7,34.6 19.6,34.9 19.2,46.9 31,47.2 "/>
<polygon class="st8" points="43,47.4 55,47.6 55.2,35.4 43.2,35.2 43,47.4 "/>
<polygon class="st7" points="66.9,47.8 67.1,41.7 67.1,35.5 55.2,35.4 55,47.6 "/>
<polygon class="st7" points="43.2,35.2 43.2,35.2 31.3,34.9 31,47.2 31.1,47.2 43,47.4 "/>
<polygon class="st1" points="571.1,4.6 571.8,3.5 573.6,0.5 569.3,0.5 569.1,0.9 "/>
<polygon class="st1" points="19.2,46.9 19.6,34.9 14.8,36.1 7.6,35.5 7.2,46.5 19.2,46.9 "/>
<polygon class="st6" points="395.3,29.2 397.6,28.1 397.2,24.5 406,23.3 408.9,21 408.5,17.3 402.5,18.1 399.3,17 394.8,17.6 
	393.3,17.7 394.7,29.1 "/>
<polygon class="st1" points="7.6,35.5 1.4,35 0.5,34.9 0.5,46.2 7.2,46.5 "/>
<polygon class="st2" points="517.7,5.2 516.6,15.4 515.2,17.2 515.5,19.7 518.9,19.1 521.9,20.1 525.3,17.3 531.2,20 533.6,17.1 
	535.9,10.4 537.3,6.2 534.2,7.8 532.5,6.5 526,6.1 524.1,3.8 517.9,0.5 516.8,0.5 515.5,3.5 "/>
<polygon class="st4" points="504.8,4.3 500.8,9.6 506.3,13.9 513.8,15.5 515.2,17.2 516.6,15.4 517.7,5.2 515.5,3.5 516.8,0.5 
	513.9,0.5 505.2,1.9 "/>
<polygon class="st8" points="466,16.3 467,16.2 466.5,9.5 466.3,8.3 454,10.2 451.5,10.6 452,14 453.5,17.8 "/>
<polygon class="st1" points="466,16.3 466.3,18.9 468.8,18.6 469.4,23.8 476.9,22.9 478,19.5 477.5,15 476.9,10.4 475,7.6 
	466.5,9.5 467,16.2 "/>
<polygon class="st8" points="596.8,2.4 597.5,4.4 600.5,1.5 600.5,0.5 592.6,0.5 593.3,1.5 "/>
<polygon class="st2" points="357.6,31.7 357.8,32.7 365.2,31.8 368.7,31.5 367.9,24.9 367.5,21.9 362.6,22.4 356.7,23.1 357,26.1 
	"/>
<polygon class="st6" points="211.8,37.9 213.1,43.1 211.7,44 209.9,48.7 209.8,50.4 225.4,49.8 225.3,46.6 224.8,34.1 217.4,34.6 
	213.1,35.9 "/>
<polygon class="st6" points="494.3,13.6 497.2,13 496.7,10.3 495.8,4.7 492.3,7.3 494.8,11.2 "/>
<polygon class="st1" points="237.5,46.2 236.9,33.9 227.8,34.1 224.8,34.1 225.3,46.6 "/>
<polygon class="st4" points="573.8,6.4 579.5,1.2 582.2,1.9 585.6,0.5 573.6,0.5 571.8,3.5 "/>
<polygon class="st5" points="211.7,44 203.6,36.6 197.6,36.6 197.9,47.4 197.9,48.9 209.9,48.7 "/>
<polygon class="st5" points="191.4,37.1 186.9,37.4 187.3,46.2 187.4,47.7 197.9,47.4 197.6,36.6 "/>
<polygon class="st4" points="486,13.9 488,13.7 489,22.9 493.8,22.2 494.1,21.1 495.5,16.1 494.3,13.6 494.8,11.2 492.3,7.3 
	487.1,7.5 485.8,9.3 "/>
<polygon class="st5" points="179.4,37.9 177.4,38 178.5,41.1 178.5,46.6 187.3,46.2 186.9,37.4 "/>
<polygon class="st7" points="177.4,38 167.3,38.5 160.1,38.8 160.5,45.8 173.9,45.3 174,46.8 178.5,46.6 178.5,41.1 "/>
<polygon class="st2" points="102.8,50.9 112.7,50.9 112,39.8 107.5,39.7 97.2,39.6 98.7,41.8 101.3,49.1 "/>
<polygon class="st6" points="160.6,49.9 160.5,45.8 160.1,38.8 155.3,39 149.6,39.2 150.1,50.2 "/>
<polygon class="st4" points="115.6,50.9 116.4,55.5 127.9,55.5 128,46.3 127,39.9 119.6,39.8 112,39.8 112.7,50.9 "/>
<polygon class="st8" points="149.6,39.2 143.2,39.5 137.5,39.7 138.1,46.3 138.2,55 150.2,54.9 150.1,50.2 "/>
<polygon class="st7" points="439.4,23.6 439.6,26.1 446.9,26.2 454.3,25.4 453.5,17.8 452,14 449,14.9 441.6,16.2 442,23.4 "/>
<polygon class="st5" points="374.9,33.3 385.8,31.9 385.6,30.4 384.7,22.8 377.8,23.7 374.3,24.2 374.6,30.8 "/>
<polygon class="st5" points="138.1,46.3 137.5,39.7 131.2,39.8 127,39.9 128,46.3 "/>
<polygon class="st5" points="374.6,30.8 374.3,24.2 367.9,24.9 368.7,31.5 "/>
<polygon class="st8" points="347.8,33.9 347.7,32.9 357.6,31.7 357,26.1 349.2,27.1 343.7,27.7 344.1,32.2 "/>
<polygon class="st1" points="326,41.7 336.5,40.7 335.7,33 335.3,28.5 333.3,28.7 324.8,29.5 325.1,32.5 325.5,36.3 "/>
<polygon class="st1" points="101.3,49.1 98.7,41.8 89.3,41.8 89.3,51 90.8,51 102.9,51 102.8,50.9 "/>
<polygon class="st2" points="406.6,30.7 418.9,30.7 418.5,21 408.9,21 406,23.3 "/>
<polygon class="st3" points="78.9,41.8 67.1,41.7 66.9,47.8 66.8,60.1 69.7,60.1 78.8,60.2 78.8,51 "/>
<polygon class="st4" points="89.3,51 89.3,41.8 78.9,41.8 78.8,51 "/>
<polygon class="st1" points="420.4,30.6 420.7,34.6 428.5,33.7 429.3,32.3 428.8,28.8 426.8,29.1 425.8,22.1 425.6,19.9 421.1,20.6 
	418.5,21 418.9,30.7 "/>
<polygon class="st2" points="315.5,54.4 314.7,45.1 313.8,33.5 313.7,33 303,34.1 303.4,37.2 304.8,55.4 "/>
<polygon class="st5" points="406.8,33.8 406.6,30.7 406,23.3 397.2,24.5 397.6,28.1 395.3,29.2 395.2,29.2 396,34.7 "/>
<polygon class="st3" points="498.5,21.3 499.4,26.3 499.7,28.2 505.4,25.2 513.2,25.2 516,22.8 515.5,19.7 515.2,17.2 513.8,15.5 
	506.3,13.9 500.8,9.6 496.7,10.3 497.2,13 "/>
<polygon class="st1" points="318.1,45.5 317.1,44.1 322,38.6 325.5,36.3 325.1,32.5 313.8,33.5 314.7,45.1 "/>
<polygon class="st5" points="467.3,26.6 469.4,23.8 468.8,18.6 466.3,18.9 466,16.3 453.5,17.8 454.3,25.4 454.9,27.9 "/>
<polygon class="st6" points="426.8,29.1 428.8,28.8 429.3,32.3 440.1,31.5 439.6,26.1 439.4,23.6 434.6,24 431.8,21.7 425.8,22.1 
	"/>
<polygon class="st3" points="242.3,53.7 246.2,53.3 249.8,51.4 250.6,50.1 260.2,50.2 259.7,43.3 256.7,43.5 256.4,39.4 250.9,39.8 
	248,42.3 247.5,45 244.3,49.1 240.3,51.4 "/>
<polygon class="st4" points="489,22.9 488,13.7 486,13.9 477.5,15 478,19.5 476.9,22.9 480,24 "/>
<polygon class="st1" points="348.5,40.6 348.4,39.4 347.8,33.9 344.1,32.2 335.7,33 336.5,40.7 336.6,41.9 "/>
<polygon class="st7" points="347.8,33.9 348.4,39.4 358.4,38.3 357.8,32.7 357.6,31.7 347.7,32.9 "/>
<polygon class="st2" points="497.2,13 494.3,13.6 495.5,16.1 494.1,21.1 498.5,21.3 "/>
<polygon class="st4" points="304.8,55.4 303.4,37.2 289.5,38.3 289.9,42.4 290.9,56.6 "/>
<polygon class="st2" points="160.5,45.8 160.6,49.9 160.9,58.1 174.3,57.5 174,46.8 173.9,45.3 "/>
<polygon class="st5" points="128,46.3 127.9,55.5 128,58.6 138.2,58.6 138.2,55 138.1,46.3 "/>
<polygon class="st4" points="359.4,47.9 366.9,47 366.4,42.4 365.2,31.8 357.8,32.7 358.4,38.3 "/>
<polygon class="st8" points="375.9,41.3 374.9,33.3 374.6,30.8 368.7,31.5 365.2,31.8 366.4,42.4 "/>
<polygon class="st7" points="325.5,36.3 322,38.6 317.1,44.1 318.1,45.5 318.2,51.7 326.9,50.8 326,41.7 "/>
<polygon class="st5" points="387.2,45.7 395.8,44.6 397.3,44.4 396,34.7 395.2,29.2 385.6,30.4 385.8,31.9 386.8,42.6 "/>
<polygon class="st7" points="31.1,47.2 31,47.2 19.2,46.9 19.2,46.9 18.8,59.1 24.7,59.3 30.8,59.4 "/>
<polygon class="st2" points="19.2,46.9 7.2,46.5 6.8,58.8 9.8,58.8 18.8,59.1 "/>
<polygon class="st3" points="43,47.4 43,47.4 31.1,47.2 30.8,59.4 39.9,59.6 42.8,59.7 "/>
<polygon class="st8" points="43,47.4 42.8,59.7 54.8,59.9 55,47.6 "/>
<polygon class="st8" points="55,47.6 54.8,59.9 66.8,60.1 66.9,47.8 "/>
<polygon class="st1" points="7.2,46.5 0.5,46.2 0.5,58.5 6.8,58.8 "/>
<polygon class="st7" points="187.3,46.2 178.5,46.6 174,46.8 174.3,57.5 174.5,57.5 187.8,57.1 187.4,47.7 "/>
<polygon class="st6" points="579.5,1.2 573.8,6.4 579.3,14.5 580.7,12.4 586.1,10 587.1,8.4 589.2,5.4 592.4,3.9 593.3,1.5 
	592.6,0.5 585.6,0.5 582.2,1.9 "/>
<polygon class="st1" points="272.4,52 271.7,43.8 268.6,42.5 259.7,43.3 260.2,50.2 261.1,55.3 263.8,56.7 270.8,56.7 272.8,56.6 
	"/>
<polygon class="st8" points="546.6,25 545.9,28.8 557.1,26.7 558.5,22.8 560.6,10.2 557.6,8.6 556.5,6.2 556.1,8.2 551.9,6.9 
	551.9,9 546.9,6.9 546.5,10 544.9,17 "/>
<polygon class="st2" points="600.5,5.2 600.5,1.5 597.5,4.4 "/>
<polygon class="st8" points="376.6,43.8 386.8,42.6 385.8,31.9 374.9,33.3 375.9,41.3 "/>
<polygon class="st7" points="197.9,48.9 197.9,47.4 187.4,47.7 187.8,57.1 189.5,60 198.3,59.7 "/>
<polygon class="st7" points="564.4,25.3 580.9,22.2 581.1,22.1 579.3,14.5 573.8,6.4 571.8,3.5 571.1,4.6 568.3,12.4 566.3,21.2 "/>
<polygon class="st4" points="530.6,31.5 542.7,29.3 545.9,28.8 546.6,25 544.9,17 546.5,10 540.3,10.9 535.9,10.4 533.6,17.1 
	531.2,20 529.1,27.1 "/>
<polygon class="st1" points="283,51 286.8,42.7 271.7,43.8 272.4,52 "/>
<polygon class="st2" points="225.4,49.8 225.6,53 231.3,52.7 233.9,56.8 236.4,56.5 240.3,51.4 244.3,49.1 237.6,49.3 237.5,46.2 
	225.3,46.6 "/>
<polygon class="st8" points="283.6,60.2 290.9,59.7 290.9,56.6 289.9,42.4 286.8,42.7 283,51 "/>
<polygon class="st6" points="440.5,38 448.9,37.2 455,36.9 455.7,35.5 454.9,27.9 454.3,25.4 446.9,26.2 439.6,26.1 440.1,31.5 "/>
<polygon class="st3" points="407.1,38.9 420.9,38.2 420.7,34.6 420.4,30.6 418.9,30.7 406.6,30.7 406.8,33.8 "/>
<polygon class="st4" points="150.1,50.2 150.2,54.9 150.4,61 161,60.4 160.9,58.1 160.6,49.9 "/>
<polygon class="st2" points="89.3,51 78.8,51 78.8,60.2 84.7,60.2 90.8,60.2 90.8,51 "/>
<polygon class="st7" points="109.4,60.2 106.4,58.2 107,55.8 102.9,51 90.8,51 90.8,60.2 96.7,60.2 108.6,60.2 "/>
<polygon class="st3" points="115.6,50.9 112.7,50.9 102.8,50.9 102.9,51 107,55.8 106.4,58.2 109.4,60.2 115.4,65 117.8,63.7 
	116.4,55.5 "/>
<polygon class="st3" points="197.9,48.9 198.3,59.7 201.3,59.6 212.1,59.3 210.3,56.1 209.8,50.4 209.9,48.7 "/>
<polygon class="st7" points="596.8,2.4 593.3,1.5 592.4,3.9 589.2,5.4 587.1,8.4 590.6,9.7 593.3,14.8 593.1,19.7 598.7,18.6 
	600.5,18.2 600.5,5.2 597.5,4.4 "/>
<polygon class="st6" points="468.2,34.3 469.5,37.2 472.5,36.9 472.3,34.9 475.3,34.5 477,32.2 481,31.6 480,24 476.9,22.9 
	469.4,23.8 467.3,26.6 "/>
<polygon class="st7" points="349.5,49.6 357.5,48.7 359.4,47.9 358.4,38.3 348.4,39.4 348.5,40.6 "/>
<polygon class="st7" points="336.6,41.9 336.5,40.7 326,41.7 326.9,50.8 327.2,53.8 329.4,53.7 337.7,52.9 337.5,50.9 "/>
<polygon class="st3" points="225.4,49.8 209.8,50.4 210.3,56.1 212.1,59.3 212.2,62.8 214.2,65.7 226.2,65.2 226,62.1 225.6,53 "/>
<polygon class="st2" points="407.4,44.6 407.1,38.9 406.8,33.8 396,34.7 397.3,44.4 404.4,43.4 "/>
<polygon class="st1" points="499.4,26.3 498.5,21.3 494.1,21.1 493.8,22.2 493.6,26.7 "/>
<polygon class="st4" points="336.6,41.9 337.5,50.9 347.2,49.9 349.5,49.6 348.5,40.6 "/>
<polygon class="st6" points="481,31.6 481.4,34.5 492.4,33.5 493.8,30.9 493.6,26.7 493.8,22.2 489,22.9 480,24 "/>
<polygon class="st2" points="457.1,39.9 459.9,41.2 469.9,40.3 469.5,37.2 468.2,34.3 467.3,26.6 454.9,27.9 455.7,35.5 455,36.9 
	456.9,36.8 "/>
<polygon class="st7" points="557.1,26.7 558.1,26.5 564.4,25.3 566.3,21.2 568.3,12.4 560.6,10.2 558.5,22.8 "/>
<polygon class="st5" points="250.6,50.1 249.8,51.4 250.3,58.7 258,57.6 258,55.6 261.1,55.3 260.2,50.2 "/>
<polygon class="st4" points="318.2,51.7 318.1,45.5 314.7,45.1 315.5,54.4 316.4,64 320.3,63.6 320.3,54.6 "/>
<polygon class="st4" points="513.2,25.2 515.5,27 516.9,34 520.9,33.3 528.4,32 530.6,31.5 529.1,27.1 531.2,20 525.3,17.3 
	521.9,20.1 518.9,19.1 515.5,19.7 516,22.8 "/>
<polygon class="st5" points="427.6,37.5 428.9,44.1 440.1,43.2 440.5,38 440.1,31.5 429.3,32.3 428.5,33.7 "/>
<polygon class="st3" points="150.2,54.9 138.2,55 138.2,58.6 138.7,67.2 150.6,67.1 150.4,61 "/>
<polygon class="st2" points="116.4,55.5 117.8,63.7 120.9,66.4 128.2,66.3 128,58.6 127.9,55.5 "/>
<polygon class="st6" points="246.2,53.3 242.3,53.7 240.3,51.4 236.4,56.5 234.8,60.5 250.4,59.7 250.3,58.7 249.8,51.4 "/>
<polygon class="st2" points="420,46.9 418.5,46.9 418.6,48.9 429.3,48.3 428.9,44.1 427.6,37.5 428.5,33.7 420.7,34.6 420.9,38.2 
	"/>
<polygon class="st3" points="233.9,56.8 231.3,52.7 225.6,53 226,62.1 235.1,61.8 234.8,60.5 236.4,56.5 "/>
<polygon class="st5" points="374.8,51.7 376.9,51.5 376.6,43.8 375.9,41.3 366.4,42.4 366.9,47 367,52.6 "/>
<polygon class="st3" points="587.5,20.9 593.1,19.7 593.3,14.8 590.6,9.7 587.1,8.4 586.1,10 580.7,12.4 579.3,14.5 581.1,22.1 "/>
<polygon class="st5" points="283,51 272.4,52 272.8,56.6 270.8,56.7 271.1,60.3 273.1,60.7 273.6,65.8 276.6,65.6 282.3,65.2 
	283.6,60.2 "/>
<polygon class="st4" points="189.5,60 187.8,57.1 174.5,57.5 174.7,69.4 179.1,69.4 179.2,72.4 189.6,72.2 189.6,72.2 "/>
<polygon class="st8" points="407.4,45.6 413.5,45.8 418.5,46.9 420,46.9 420.9,38.2 407.1,38.9 407.4,44.6 "/>
<polygon class="st1" points="160.9,58.1 161,60.4 161.2,69.7 163.8,69.6 174.7,69.4 174.5,57.5 174.3,57.5 "/>
<polygon class="st8" points="128,58.6 128.2,66.3 128.2,68.9 138.8,68.7 138.7,67.2 138.2,58.6 "/>
<polygon class="st5" points="493.8,30.9 492.4,33.5 492.8,38 501,36.6 499.7,28.2 499.4,26.3 493.6,26.7 "/>
<polygon class="st8" points="503.6,36.2 516.9,34 515.5,27 513.2,25.2 505.4,25.2 499.7,28.2 501,36.6 "/>
<polygon class="st7" points="378.2,53.9 382.1,53.5 387.9,52.4 387.2,45.7 386.8,42.6 376.6,43.8 376.9,51.5 "/>
<polygon class="st3" points="39.6,71.9 39.9,59.6 30.8,59.4 24.7,59.3 24.3,74.6 24.8,74.6 39.6,75 "/>
<polygon class="st5" points="24.7,59.3 18.8,59.1 9.8,58.8 9.3,74.1 9.9,74.2 24.3,74.6 "/>
<polygon class="st1" points="39.9,59.6 39.6,71.9 54.6,72.2 54.8,59.9 42.8,59.7 "/>
<polygon class="st5" points="66.8,60.1 54.8,59.9 54.6,72.2 54.6,75.2 65.5,75.4 69.6,75.4 69.7,60.1 "/>
<polygon class="st2" points="9.8,58.8 6.8,58.8 0.5,58.5 0.5,73.8 9.3,74.1 "/>
<polygon class="st4" points="78.8,60.2 69.7,60.1 69.6,75.4 75.6,75.5 84.7,75.5 84.7,60.2 "/>
<polygon class="st6" points="96.7,60.2 96.7,72.5 102.7,72.4 108.6,72.4 108.6,60.2 "/>
<polygon class="st2" points="96.7,72.5 96.7,60.2 90.8,60.2 84.7,60.2 84.7,75.5 90.1,75.5 96.7,75.5 "/>
<polygon class="st5" points="120.7,69.7 120.9,66.4 117.8,63.7 115.4,65 109.4,60.2 108.6,60.2 108.6,72.4 114.6,72.4 116.2,73.4 
	118.8,69 "/>
<polygon class="st4" points="266.5,63.2 271.1,60.3 270.8,56.7 263.8,56.7 261.1,55.3 258,55.6 258,57.6 250.3,58.7 250.4,59.7 
	251,65.1 253,71.9 258.9,71.5 263.4,71.1 263.1,67 "/>
<polygon class="st5" points="161,60.4 150.4,61 150.6,67.1 150.8,73.2 163.6,72.7 163.8,69.6 161.2,69.7 "/>
<polygon class="st2" points="198.3,59.7 189.5,60 189.6,72.2 192.6,72.1 192.6,70.1 201.6,69.9 201.3,59.6 "/>
<polygon class="st4" points="327.2,53.8 326.9,50.8 318.2,51.7 320.3,54.6 320.3,63.6 325.2,63.2 330.2,62.8 329.4,53.7 "/>
<polygon class="st3" points="473.7,45.7 481.6,43.8 480.1,40.4 479.4,34.8 481.4,34.5 481,31.6 477,32.2 475.3,34.5 472.3,34.9 
	472.5,36.9 469.5,37.2 469.9,40.3 "/>
<polygon class="st6" points="212.1,59.3 201.3,59.6 201.6,69.9 205.1,69.7 205,68.7 216,68.3 214.2,65.7 212.2,62.8 "/>
<polygon class="st1" points="366.9,47 359.4,47.9 357.5,48.7 357.9,56.8 366.4,55.8 367,52.6 "/>
<polygon class="st3" points="440.7,51.4 443.7,51.3 446.4,49 449.7,48.7 449.6,46.6 452.6,46.4 451.1,40.3 449.1,40.4 448.9,37.2 
	440.5,38 440.1,43.2 "/>
<polygon class="st3" points="451.1,40.3 452.6,46.4 452.8,48.5 458.8,49 461.8,48.8 461.5,42.7 459.9,41.2 457.1,39.9 456.9,36.8 
	455,36.9 448.9,37.2 449.1,40.4 "/>
<polygon class="st4" points="349.5,49.6 347.2,49.9 348.3,60.1 350.3,59.8 358.2,58.8 357.9,56.8 357.5,48.7 "/>
<polygon class="st2" points="337.5,50.9 337.7,52.9 338.7,61.1 339.6,62.1 344.7,61.6 348.3,60.1 347.2,49.9 "/>
<polygon class="st4" points="407.4,45.6 407.4,44.6 404.4,43.4 397.3,44.4 395.8,44.6 397.3,56.1 400.3,55.7 407,55.3 406.5,46.2 
	"/>
<polygon class="st5" points="388.5,57.9 397.4,56.8 397.3,56.1 395.8,44.6 387.2,45.7 387.9,52.4 "/>
<polygon class="st2" points="304.8,55.4 304.6,62.3 305.4,69.4 316.8,68.6 316.4,64 315.5,54.4 "/>
<polygon class="st3" points="290.9,59.7 291.3,64.6 302.1,63.7 304.6,62.3 304.8,55.4 290.9,56.6 "/>
<polygon class="st8" points="250.4,59.7 234.8,60.5 235.1,61.8 234.5,63.6 240.6,64.5 240.8,67.6 242.8,68.5 243,72.6 246.9,72.3 
	253,71.9 251,65.1 "/>
<polygon class="st4" points="480.1,40.4 481.6,43.8 488.3,44 488.4,45.1 490.5,42.4 492.8,38 492.4,33.5 481.4,34.5 479.4,34.8 "/>
<polygon class="st5" points="338.7,61.1 337.7,52.9 329.4,53.7 330.2,62.8 330.5,67.5 332.5,67.3 339.3,66.7 339.6,62.1 "/>
<polygon class="st7" points="418.5,46.9 413.5,45.8 407.4,45.6 406.5,46.2 407,55.3 410.7,55.2 418.9,54.8 418.6,48.9 "/>
<polygon class="st6" points="233.4,66.9 234.5,63.6 235.1,61.8 226,62.1 226.2,65.2 214.2,65.7 216,68.3 219.5,71.1 223.8,76.5 
	226.3,77.8 234.9,77.4 235.5,73 "/>
<polygon class="st1" points="276.6,65.6 273.6,65.8 273.1,60.7 271.1,60.3 266.5,63.2 263.1,67 263.4,71.1 263.9,77.3 274.3,76.6 
	277.4,76.4 "/>
<polygon class="st6" points="120.9,66.4 120.7,69.7 118.8,69 116.2,73.4 115,76.6 128.4,76.5 128.2,68.9 128.2,66.3 "/>
<polygon class="st4" points="429.7,54.6 437.3,53.9 437,54.9 443.9,54.3 443.7,51.3 440.7,51.4 440.1,43.2 428.9,44.1 429.3,48.3 
	"/>
<polygon class="st7" points="290.9,59.7 283.6,60.2 282.3,65.2 282.5,67.8 285,67.6 288.9,72 291.9,71.8 291.3,64.6 "/>
<polygon class="st8" points="378.2,53.9 376.9,51.5 374.8,51.7 375.9,60.9 382.9,60.1 382.1,53.5 "/>
<polygon class="st6" points="367,52.6 366.4,55.8 367.4,64.4 376.2,63.4 375.9,60.9 374.8,51.7 "/>
<polygon class="st4" points="235.5,73 243,72.6 242.8,68.5 240.8,67.6 240.6,64.5 234.5,63.6 233.4,66.9 "/>
<polygon class="st7" points="150.6,67.1 138.7,67.2 138.8,68.7 138.8,76.4 150.8,76.3 150.8,73.2 "/>
<polygon class="st2" points="467.6,51.5 471.1,49.9 470.4,46.4 473.7,45.7 469.9,40.3 459.9,41.2 461.5,42.7 461.8,48.8 462,52 "/>
<polygon class="st7" points="128.2,68.9 128.4,76.5 128.4,79.1 138.8,79 138.8,76.4 138.8,68.7 "/>
<polygon class="st6" points="387.9,52.4 382.1,53.5 382.9,60.1 388.7,59.5 388.5,57.9 "/>
<polygon class="st5" points="560.7,29.6 562.5,26.6 567.1,28.5 572,28 571.1,30.2 573.1,31.9 577.1,37.3 578.1,36.9 578.9,26.2 
	580.9,22.2 564.4,25.3 558.1,26.5 558.8,29.4 "/>
<polygon class="st3" points="543.5,39.4 546.9,32.6 551,34.5 556.1,34.3 556.3,30.5 558.8,29.4 558.1,26.5 557.1,26.7 545.9,28.8 
	542.7,29.3 540.6,38.4 "/>
<polygon class="st7" points="536.2,44.6 540.6,38.4 542.7,29.3 530.6,31.5 528.4,32 531.3,49.9 "/>
<polygon class="st5" points="504.8,39 511.3,38.8 517.9,43.4 519.1,43.8 520.9,33.3 516.9,34 503.6,36.2 "/>
<polygon class="st1" points="519.9,48.5 522.6,50.5 525.6,48.5 531.3,50.3 531.3,49.9 528.4,32 520.9,33.3 519.1,43.8 "/>
<polygon class="st2" points="493,42.2 497.1,45.8 500,46.4 502.1,46.9 503.1,45.2 502.5,42 504.8,39 503.6,36.2 501,36.6 492.8,38 
	490.5,42.4 "/>
<polygon class="st7" points="597.9,28.7 598.8,31.9 600.5,33 600.5,18.2 598.7,18.6 "/>
<polygon class="st3" points="585.8,24.8 591.9,28.2 591.3,33.3 598.8,31.9 597.9,28.7 598.7,18.6 593.1,19.7 587.5,20.9 "/>
<polygon class="st7" points="585.8,24.8 587.5,20.9 581.1,22.1 580.9,22.2 578.9,26.2 578.1,36.9 581.2,37 584.6,39.3 591.3,33.3 
	591.3,33.3 591.9,28.2 "/>
<polygon class="st1" points="418.6,48.9 418.9,54.8 421.4,54.7 421.8,60.5 427.6,59.8 429.7,54.6 429.3,48.3 "/>
<polygon class="st3" points="174.7,69.4 163.8,69.6 163.6,72.7 165.1,79 168.4,80.8 175.4,86.1 176.9,81.9 179.1,82.6 179.2,72.4 
	179.1,69.4 "/>
<polygon class="st7" points="366.4,55.8 357.9,56.8 358.2,58.8 359.2,69 366.3,68.2 367.4,64.4 "/>
<polygon class="st6" points="563.2,37.4 564.2,30 567.1,28.5 562.5,26.6 560.7,29.6 558.8,29.4 556.3,30.5 556.1,34.3 559.6,35.4 
	"/>
<polygon class="st6" points="205,68.7 205.1,69.7 205.5,80.9 213,81.3 212.2,76.7 219.5,71.1 216,68.3 "/>
<polygon class="st2" points="302.1,63.7 291.3,64.6 291.9,71.8 292.1,74.3 304.3,73.2 305.4,69.4 304.6,62.3 "/>
<polygon class="st7" points="201.6,69.9 192.6,70.1 192.6,72.1 189.6,72.2 189.6,72.2 189.7,81.3 205.5,80.9 205.1,69.7 "/>
<polygon class="st7" points="444.1,57.8 450.3,56.9 450.2,56 456.2,55.6 456,52.4 459,52.2 458.8,49 452.8,48.5 452.6,46.4 
	449.6,46.6 449.7,48.7 446.4,49 443.7,51.3 443.9,54.3 "/>
<polygon class="st8" points="39.6,71.9 39.6,75 39.4,84.1 54.4,84.4 54.6,75.2 54.6,72.2 "/>
<polygon class="st4" points="96.7,72.5 96.7,75.5 90.1,75.5 90.1,87.8 102.1,87.8 102.5,80.7 102.7,72.4 "/>
<polygon class="st4" points="116.2,73.4 114.6,72.4 108.6,72.4 102.7,72.4 102.5,80.7 112.9,80.6 118.6,80.6 115,76.6 "/>
<polygon class="st4" points="291.9,71.8 288.9,72 285,67.6 282.5,67.8 282.3,65.2 276.6,65.6 277.4,76.4 274.3,76.6 274.7,81.2 
	283.6,80.6 292.5,79.9 292.1,74.3 "/>
<polygon class="st8" points="544.4,46.4 547.2,42.5 551,34.5 546.9,32.6 543.5,39.4 540.6,38.4 536.2,44.6 539.9,44.5 "/>
<polygon class="st6" points="488.4,45.1 488.3,44 481.6,43.8 473.7,45.7 470.4,46.4 471.1,49.9 467.6,51.5 468.1,56.2 471.8,57.3 
	472,59.2 473,57.1 475.8,56.8 475.9,54.1 478.5,51.3 480.7,53.4 486.7,48.3 "/>
<polygon class="st8" points="503.1,45.2 511.4,46.6 515.9,45.5 517.9,43.4 511.3,38.8 504.8,39 502.5,42 "/>
<polygon class="st2" points="350.3,59.8 351.3,70.1 355.7,69.5 359.2,69 358.2,58.8 "/>
<polygon class="st1" points="348.3,60.1 344.7,61.6 339.6,62.1 339.3,66.7 340.7,66.6 341.2,70.9 347.8,70.5 351.3,70.1 350.3,59.8 
	"/>
<polygon class="st3" points="563.2,37.4 569.2,40.8 570.2,36.9 573.1,31.9 571.1,30.2 572,28 567.1,28.5 564.2,30 "/>
<polygon class="st3" points="163.6,72.7 150.8,73.2 150.8,76.3 151.1,87.5 154,85.9 158.3,86.5 158.6,84.3 160.5,86.5 162.3,83.7 
	165.1,82.8 166.5,79.8 168.4,80.8 165.1,79 "/>
<polygon class="st8" points="189.6,72.2 179.2,72.4 179.1,82.6 186.6,84.9 189.7,84.9 189.7,81.3 "/>
<polygon class="st5" points="325.2,63.2 320.3,63.6 316.4,64 316.8,68.6 317.2,73.1 315.5,76.4 325.2,75.5 324.5,66.4 "/>
<polygon class="st7" points="332.9,71.9 332.5,67.3 330.5,67.5 330.2,62.8 325.2,63.2 324.5,66.4 325.2,75.5 325.5,78.6 330.5,78.3 
	329.9,72.1 "/>
<polygon class="st2" points="489.2,47.7 490.3,51.6 491.9,50 493.7,53 500,46.4 497.1,45.8 493,42.2 490.5,42.4 488.4,45.1 
	486.7,48.3 "/>
<polygon class="st2" points="220,84.2 232.4,83.7 231,81.1 226.3,77.8 223.8,76.5 219.5,71.1 212.2,76.7 213,81.3 214.1,87.5 
	218.1,87.4 220.1,87.3 "/>
<polygon class="st4" points="397.4,56.8 388.5,57.9 388.7,59.5 389.5,67.1 401.9,66.1 401.4,57 400.3,55.7 397.3,56.1 "/>
<polygon class="st6" points="407,55.3 400.3,55.7 401.4,57 401.9,66.1 404.5,66.5 411.3,66.3 410.7,55.2 "/>
<polygon class="st1" points="9.9,74.2 9.3,74.1 0.5,73.8 0.5,89.2 9.3,89.5 "/>
<polygon class="st2" points="421.8,60.5 421.4,54.7 418.9,54.8 410.7,55.2 411.3,66.3 411.8,66.2 415.1,66 417.2,65.2 "/>
<polygon class="st7" points="24.8,74.6 24.3,74.6 9.9,74.2 9.3,89.5 9.6,89.5 24.3,89.9 24.4,86.9 "/>
<polygon class="st7" points="65.5,75.4 54.6,75.2 54.4,84.4 54.3,90.6 65.2,90.7 65.3,87.6 "/>
<polygon class="st6" points="24.8,74.6 24.4,86.9 39.4,87.2 39.4,84.1 39.6,75 "/>
<polygon class="st8" points="71.6,81.2 75.6,75.5 69.6,75.4 65.5,75.4 65.3,87.6 68.3,87.6 68.2,92.3 77.6,92.9 77.6,93.9 
	80.6,93.9 80.6,89.4 76.1,89 "/>
<polygon class="st1" points="90.1,75.5 84.7,75.5 75.6,75.5 71.6,81.2 76.1,89 80.6,89.4 84.5,88.1 88.8,88.6 89.9,90.9 90.1,87.8 
	"/>
<polygon class="st4" points="468.1,56.2 467.6,51.5 462,52 461.8,48.8 458.8,49 459,52.2 456,52.4 456.2,55.6 457.7,61.8 
	471.4,60.6 472,59.2 471.8,57.3 "/>
<polygon class="st8" points="544.4,46.4 546.8,47.3 557.8,49.3 560.1,46 559.1,43 560.5,39.3 559.6,35.4 556.1,34.3 551,34.5 
	547.2,42.5 "/>
<polygon class="st8" points="115,76.6 118.6,80.6 121,82.1 120.5,84.7 123.9,88.3 128.6,89.6 128.4,79.1 128.4,76.5 "/>
<polygon class="st2" points="388.7,59.5 382.9,60.1 375.9,60.9 376.2,63.4 377,69.9 378.9,68.3 382.9,67.8 389.5,67.1 "/>
<polygon class="st7" points="151.1,87.5 150.8,76.3 138.8,76.4 138.8,79 138.9,87.7 141.9,89.9 149.3,87.2 "/>
<polygon class="st1" points="272.2,88 271.7,81.4 274.7,81.2 274.3,76.6 263.9,77.3 263.4,71.1 258.9,71.5 260.2,89.9 261.8,89.8 
	263.2,88.7 "/>
<polygon class="st8" points="253,71.9 246.9,72.3 247.6,81.4 248.2,90.6 260.2,89.9 258.9,71.5 "/>
<polygon class="st1" points="235.5,73 234.9,77.4 235.7,87.2 236.2,84.8 243.4,84.8 243.3,83 247.6,81.4 246.9,72.3 243,72.6 "/>
<polygon class="st8" points="443.9,54.3 437,54.9 437.3,53.9 429.7,54.6 427.6,59.8 428.9,66 444.1,64.9 444.6,63.5 444.1,57.8 "/>
<polygon class="st8" points="569.2,40.8 575.4,44.4 577.1,37.3 573.1,31.9 570.2,36.9 "/>
<polygon class="st1" points="316.8,68.6 305.4,69.4 304.3,73.2 305,80.3 306.6,80.2 315.2,80 315.5,76.4 317.2,73.1 "/>
<polygon class="st1" points="489.2,47.7 486.7,48.3 480.7,53.4 484.6,55.4 490.3,51.6 "/>
<polygon class="st8" points="341.2,70.9 340.7,66.6 339.3,66.7 332.5,67.3 332.9,71.9 329.9,72.1 330.5,78.3 340.4,77.4 339.8,71.4 
	"/>
<polygon class="st7" points="511.4,46.6 503.1,45.2 502.1,46.9 501.3,51.9 503.8,54.4 502.2,56.2 510.4,57.1 512.3,56.5 513.1,51.7 
	"/>
<polygon class="st2" points="559.6,51.1 562.3,48.1 563.4,51.1 567.6,49.3 569.2,40.8 563.2,37.4 559.6,35.4 560.5,39.3 559.1,43 
	560.1,46 557.8,49.3 557.1,50.6 "/>
<polygon class="st3" points="128.4,79.1 128.6,89.6 128.4,91.2 132.3,90.9 136.5,86.9 138.9,87.7 138.8,79 "/>
<polygon class="st3" points="367.4,64.4 366.3,68.2 367.1,75.9 370.4,75.4 373.4,72.9 377,69.9 376.2,63.4 "/>
<polygon class="st8" points="511.4,46.6 513.1,51.7 516.9,50.9 519.9,48.5 519.1,43.8 517.9,43.4 515.9,45.5 "/>
<polygon class="st3" points="501.3,51.9 502.1,46.9 500,46.4 493.7,53 493.2,53.9 496.8,59.1 499.1,59.2 502.2,56.2 503.8,54.4 "/>
<polygon class="st4" points="102.5,80.7 102.1,87.8 101.9,93.1 104.5,93.4 112.9,93.8 112.9,80.6 "/>
<polygon class="st7" points="123.9,88.3 120.5,84.7 121,82.1 118.6,80.6 112.9,80.6 112.9,93.8 112.9,96.6 116.4,96 120.4,95.6 
	120.5,88.2 "/>
<polygon class="st3" points="175.4,86.1 168.4,80.8 166.5,79.8 165.1,82.8 162.3,83.7 160.5,86.5 158.6,84.3 158.4,96.6 170.4,96.8 
	173.3,91.9 173,89.8 "/>
<polygon class="st1" points="483.5,58.5 484.6,55.4 480.7,53.4 478.5,51.3 475.9,54.1 475.8,56.8 473,57.1 472,59.2 471.4,60.6 
	472,63.4 476.8,65.2 480.4,60.8 "/>
<polygon class="st5" points="235.7,87.2 234.9,77.4 226.3,77.8 231,81.1 232.4,83.7 234.4,93.8 237.7,95.8 240.1,92.3 237,91.7 "/>
<polygon class="st4" points="450.2,56 450.3,56.9 444.1,57.8 444.6,63.5 450.7,63.6 453.9,64.7 454.1,68.3 457.1,68.1 456.7,61.8 
	457.7,61.8 456.2,55.6 "/>
<polygon class="st6" points="493.2,53.9 493.7,53 491.9,50 490.3,51.6 484.6,55.4 483.5,58.5 485.6,63.6 487.9,63.3 491.5,63.5 
	496.8,59.1 "/>
<polygon class="st5" points="292.1,74.3 292.5,79.9 295.6,81.2 305,80.3 304.3,73.2 "/>
<polygon class="st8" points="427.6,59.8 421.8,60.5 417.2,65.2 415.1,66 415.9,74 421.2,73.3 428.7,71.1 428.9,66 "/>
<polygon class="st3" points="591.3,33.3 591.3,33.3 598.6,39.9 600.2,39.5 600.5,39.7 600.5,33 598.8,31.9 "/>
<polygon class="st1" points="347.8,70.5 341.2,70.9 339.8,71.4 340.4,77.4 341,83.5 350.8,82.6 350.6,80.5 349.2,80.7 "/>
<polygon class="st8" points="367.1,75.9 366.3,68.2 359.2,69 355.7,69.5 356.9,79.8 362.8,79.5 364.4,78.4 364.1,76.3 "/>
<polygon class="st2" points="205.5,80.9 189.7,81.3 189.7,84.9 195.3,84.9 195.4,91.1 208.2,90.7 208.2,87.6 214.1,87.5 213,81.3 
	"/>
<polygon class="st8" points="583.3,42.3 585.5,44.5 589.2,44.4 595.5,47.5 598.3,45.8 600.2,39.5 598.6,39.9 591.3,33.3 584.6,39.3 
	"/>
<polygon class="st7" points="351.3,70.1 347.8,70.5 349.2,80.7 350.6,80.5 356.9,79.8 355.7,69.5 "/>
<polygon class="st3" points="176.9,81.9 175.4,86.1 173,89.8 173.3,91.9 175.9,94.8 183.6,94.8 186.6,84.9 179.1,82.6 "/>
<polygon class="st4" points="535.5,53.4 537,53.6 536.1,57.7 536.4,57.9 543,61.8 544.6,57.4 542.8,53.8 544.4,46.4 539.9,44.5 
	536.2,44.6 531.3,49.9 531.3,50.3 536.5,49.5 "/>
<polygon class="st5" points="575.4,44.4 572.7,49.2 581.3,50 585.1,52.7 589.2,44.4 585.5,44.5 583.3,42.3 584.6,39.3 581.2,37 
	578.1,36.9 577.1,37.3 "/>
<polygon class="st5" points="389.5,67.1 390.3,74.1 392.2,72.4 395.7,74.6 398.7,73.5 404,75.5 404.5,66.5 401.9,66.1 "/>
<polygon class="st2" points="382.6,80.6 382.9,67.8 378.9,68.3 377,69.9 373.4,72.9 374.4,82.8 380.9,82 382.6,81.3 "/>
<polygon class="st1" points="382.9,67.8 382.6,80.6 389.1,76.9 390.3,74.1 389.5,67.1 "/>
<polygon class="st8" points="39.4,84.1 39.4,87.2 39.2,96.4 54.2,96.7 54.3,90.6 54.4,84.4 "/>
<polygon class="st4" points="513.1,51.7 512.3,56.5 517.2,58.3 517,61.6 521.8,59.8 522.9,54.6 522.6,50.5 519.9,48.5 516.9,50.9 
	"/>
<polygon class="st2" points="158.3,86.5 154,85.9 151.1,87.5 149.3,87.2 141.9,89.9 141.8,97.9 149.3,98 149.3,97 158.4,97.1 
	158.4,96.6 158.6,84.3 "/>
<polygon class="st5" points="524.4,57.1 532.1,58 536.1,57.7 537,53.6 535.5,53.4 536.5,49.5 531.3,50.3 525.6,48.5 522.6,50.5 
	522.9,54.6 "/>
<polygon class="st3" points="411.3,66.3 404.5,66.5 404,75.5 407,80.3 407.2,82 412.2,83.3 411.8,66.2 "/>
<polygon class="st6" points="567.6,49.3 571.8,50.5 572.7,49.2 575.4,44.4 569.2,40.8 "/>
<polygon class="st3" points="243.3,83 243.4,84.8 236.2,84.8 235.7,87.2 237,91.7 240.1,92.3 244.9,93.5 244.8,90.9 248.2,90.6 
	247.6,81.4 "/>
<polygon class="st3" points="325.2,75.5 315.5,76.4 315.2,80 318.8,88.7 326.4,87.9 325.5,78.6 "/>
<polygon class="st4" points="415.9,74 415.1,66 411.8,66.2 412.2,83.3 416.2,82.9 422.1,86.8 421.2,73.3 "/>
<polygon class="st5" points="194.5,95.3 195.4,91.1 195.3,84.9 189.7,84.9 186.6,84.9 183.6,94.8 185.2,96.5 187.1,100.5 
	194.8,100.5 195,100.1 "/>
<polygon class="st2" points="553.5,56.7 557.1,50.6 557.8,49.3 546.8,47.3 544.4,46.4 542.8,53.8 544.6,57.4 543,61.8 545.4,63.3 
	546.5,59.9 550.3,62.3 551.8,57.6 "/>
<polygon class="st3" points="141.9,89.9 138.9,87.7 136.5,86.9 132.3,90.9 128.4,91.2 128.5,93.6 128.5,100.5 141.7,100.5 
	141.8,97.9 "/>
<polygon class="st2" points="220,84.2 220.1,87.3 218.1,87.4 218.3,92.6 222.6,96.6 226.7,96.4 230.1,96 234.4,93.8 232.4,83.7 "/>
<polygon class="st2" points="68.2,92.3 68.3,87.6 65.3,87.6 65.2,90.7 65.2,96.6 67.1,99.9 77.6,100 77.6,93.9 77.6,92.9 "/>
<polygon class="st3" points="24.4,86.9 24.3,89.9 24.2,99.2 39.1,99.5 39.2,96.4 39.4,87.2 "/>
<polygon class="st7" points="102.1,87.8 90.1,87.8 89.9,90.9 92.5,92 92.5,100.1 104.5,100 104.5,93.4 101.9,93.1 "/>
<polygon class="st8" points="283.6,80.6 274.7,81.2 271.7,81.4 272.2,88 272.8,98.1 275.9,98.1 275.7,95 287.6,94 287.4,90.9 
	284.4,91.3 "/>
<polygon class="st3" points="292.5,79.9 283.6,80.6 284.4,91.3 287.4,90.9 296.3,90.4 295.6,81.2 "/>
<polygon class="st1" points="92.5,92 89.9,90.9 88.8,88.6 84.5,88.1 80.6,89.4 80.6,93.9 77.6,93.9 77.6,100 78.5,100.5 92.5,100.5 
	92.5,100.1 "/>
<polygon class="st5" points="454.1,68.3 453.9,64.7 450.7,63.6 444.6,63.5 444.1,64.9 444.6,72.7 446.3,75.8 449.3,75.6 451.3,75.5 
	454.5,75 "/>
<polygon class="st3" points="457.7,61.8 456.7,61.8 457.1,68.1 463.3,68.1 463.4,69.5 465.7,66.8 468.8,69.6 468.9,71.7 472,69.6 
	472,63.4 471.4,60.6 "/>
<polygon class="st8" points="123.9,88.3 120.5,88.2 120.4,95.6 121.3,93.2 128.5,93.6 128.4,91.2 128.6,89.6 "/>
<polygon class="st3" points="428.7,71.1 432,72.1 433.8,73.8 444.6,72.7 444.1,64.9 428.9,66 "/>
<polygon class="st5" points="370.4,75.4 367.1,75.9 364.1,76.3 364.4,78.4 365.4,87.5 368.4,86.9 374.4,82.8 373.4,72.9 "/>
<polygon class="st4" points="485.6,63.6 483.5,58.5 480.4,60.8 476.8,65.2 479.5,68.7 485.5,67.9 487.9,63.3 "/>
<polygon class="st2" points="306.6,80.2 307.6,91.6 308.7,91.5 318.8,90.5 318.8,88.7 315.2,80 "/>
<polygon class="st2" points="305,80.3 295.6,81.2 296.3,90.4 296.5,92.4 299.3,92.4 307.6,91.6 306.6,80.2 "/>
<polygon class="st8" points="340.4,77.4 330.5,78.3 325.5,78.6 326.4,87.9 330.2,87.7 335.4,87.2 341.3,86.6 341,83.5 "/>
<polygon class="st3" points="510.8,62.2 510.4,57.1 502.2,56.2 499.1,59.2 499.9,62.2 503.4,65.4 505.9,66.5 508.3,70.5 510.1,70.6 
	509.4,65.4 "/>
<polygon class="st6" points="218.5,97.8 218.3,92.6 218.1,87.4 214.1,87.5 208.2,87.6 208.2,90.7 208.4,100.5 214.5,100.5 
	214.4,97.9 "/>
<polygon class="st2" points="392.2,72.4 390.3,74.1 389.1,76.9 389.8,81.5 392,82.7 396,85.1 397,84.1 395.7,74.6 "/>
<polygon class="st8" points="9.3,89.5 0.5,89.2 0.5,100.5 9.2,100.5 9.6,89.5 "/>
<polygon class="st3" points="65.2,96.6 65.2,90.7 54.3,90.6 54.2,96.7 54.1,100.5 66.8,100.5 67.1,99.9 "/>
<polygon class="st2" points="24.3,89.9 9.6,89.5 9.2,100.5 24.1,100.5 24.2,99.2 "/>
<polygon class="st3" points="598.7,53.5 599,54.5 598.4,55.4 598.3,55.7 599.6,58.1 600.5,57.2 600.5,49.1 599.1,51.3 "/>
<polygon class="st3" points="598.3,45.8 600.5,47.3 600.5,39.7 600.2,39.5 "/>
<polygon class="st7" points="398.7,73.5 400.6,76.9 401,81.8 402.3,83.3 407,80.3 404,75.5 "/>
<polygon class="st7" points="532.1,62.8 533.8,59.3 536.4,57.9 536.1,57.7 532.1,58 524.4,57.1 522.9,54.6 521.8,59.8 517,61.6 
	517.1,68.8 513.3,71.2 516.8,76.7 516,81.7 518.9,78.2 521.3,78.3 525.2,74.3 526.4,67.4 530.8,69.3 533.2,64.7 "/>
<polygon class="st5" points="517,61.6 517.2,58.3 512.3,56.5 510.4,57.1 510.8,62.2 509.4,65.4 510.1,70.6 513.3,71.2 517.1,68.8 
	"/>
<polygon class="st4" points="491.5,63.5 493.2,69.1 492.1,71.2 494.4,73.5 501,66.7 503.4,65.4 499.9,62.2 499.1,59.2 496.8,59.1 
	"/>
<polygon class="st2" points="562.7,57.6 564.2,53.3 563.4,51.1 562.3,48.1 559.6,51.1 557.1,50.6 553.5,56.7 551.8,57.6 550.3,62.3 
	557.4,66.7 559,61.6 "/>
<polygon class="st7" points="400.6,76.9 398.7,73.5 395.7,74.6 397,84.1 399.4,84.2 402.3,83.3 401,81.8 "/>
<polygon class="st5" points="479.5,68.7 476.8,65.2 472,63.4 472,69.6 468.9,71.7 473.6,78 475.9,79.6 478,81.9 480.6,79.4 
	479.7,77.4 "/>
<polygon class="st3" points="364.4,78.4 362.8,79.5 356.9,79.8 350.6,80.5 350.8,82.6 351.8,82.4 352.7,90.4 360.5,89.4 363.2,90.3 
	365.4,87.5 "/>
<polygon class="st8" points="112.9,96.6 112.9,93.8 104.5,93.4 104.5,100 104.5,100.5 116.5,100.5 116.4,96 "/>
<polygon class="st4" points="195.4,91.1 194.5,95.3 195,100.1 194.8,100.5 208.4,100.5 208.2,90.7 "/>
<polygon class="st2" points="183.6,94.8 175.9,94.8 173.3,91.9 170.4,96.8 170.4,100.5 183.9,100.5 185.2,96.5 "/>
<polygon class="st6" points="585.1,52.7 594.1,57.3 596.5,57.9 598.4,55.4 598.7,53.5 598.3,52.2 596.3,50.6 595.1,49.7 594.4,49.2 
	595.5,47.5 589.2,44.4 "/>
<polygon class="st6" points="599,54.5 598.7,53.5 598.4,55.4 "/>
<polygon class="st7" points="121.3,93.2 120.4,95.6 116.4,96 116.5,100.5 128.5,100.5 128.5,93.6 "/>
<polygon class="st6" points="428.7,71.1 421.2,73.3 422.1,86.8 423.7,86.6 426.9,83.9 433.9,85.9 432,72.1 "/>
<polygon class="st6" points="492.1,71.2 493.2,69.1 491.5,63.5 487.9,63.3 485.5,67.9 489.4,73.9 490.2,76.8 492.3,77.6 493.4,75.4 
	494.4,73.5 "/>
<polygon class="st5" points="563.4,51.1 564.2,53.3 562.7,57.6 565.9,59.6 568.1,58.4 569.3,55.1 571.8,50.5 567.6,49.3 "/>
<polygon class="st8" points="461.1,76.1 462.9,74 463.4,69.5 463.3,68.1 457.1,68.1 454.1,68.3 454.5,75 451.3,75.5 451.5,77.8 
	454.1,77.6 454.9,80.7 458.1,80.5 458.3,83.7 460.3,83.5 462.2,82.9 463.2,82.3 "/>
<polygon class="st2" points="382.6,81.3 382.6,82.2 389.8,81.5 389.1,76.9 382.6,80.6 "/>
<polygon class="st1" points="465.7,66.8 463.4,69.5 462.9,74 461.1,76.1 463.2,82.3 462.2,82.9 467.1,86.4 466.2,81.7 468.8,79.6 
	473.6,78 468.9,71.7 468.8,69.6 "/>
<polygon class="st4" points="263.2,88.7 261.8,89.8 263.6,98.7 272.8,98.1 272.2,88 "/>
<polygon class="st1" points="444.6,72.7 433.8,73.8 432,72.1 433.9,85.9 436.9,85.5 439.8,81.3 443.4,79.8 446.3,85.9 448.1,84.7 
	449.3,75.6 446.3,75.8 "/>
<polygon class="st8" points="571.8,50.5 569.3,55.1 575.5,60 582.7,68.8 585.4,68.4 587.2,62.8 580.4,54.2 581.3,50 572.7,49.2 "/>
<polygon class="st1" points="261.8,89.8 260.2,89.9 248.2,90.6 244.8,90.9 244.9,93.5 249.4,95.8 249.4,97.4 248.2,98.7 
	248.1,100.5 263.7,100.5 263.6,98.7 "/>
<polygon class="st4" points="222.6,96.6 218.3,92.6 218.5,97.8 214.4,97.9 214.5,100.5 226.9,100.5 226.7,96.4 "/>
<polygon class="st7" points="595.5,47.5 596.3,48.3 599.1,51.3 600.5,49.1 600.5,47.3 598.3,45.8 "/>
<polygon class="st3" points="350.8,82.6 341,83.5 341.3,86.6 342.1,94.2 352.1,93.1 352.7,90.4 351.8,82.4 "/>
<polygon class="st2" points="244.5,94.8 249.4,97.4 249.4,95.8 244.9,93.5 240.1,92.3 237.7,95.8 234.4,93.8 230.1,96 226.7,96.4 
	226.9,100.5 239.2,100.5 240.7,97.1 "/>
<polygon class="st6" points="39.2,96.4 39.1,99.5 39.1,100.5 54.1,100.5 54.2,96.7 "/>
<polygon class="st5" points="543,61.8 536.4,57.9 533.8,59.3 532.1,62.8 533.2,64.7 530.8,69.3 530.7,72 533.9,72.9 536.1,75.8 
	540.7,76.6 542.7,73.9 545.4,63.3 "/>
<polygon class="st3" points="158.4,96.6 158.4,97.1 158.4,100.5 170.4,100.5 170.4,96.8 "/>
<path class="st3" d="M581.3,50l-0.8,4.1l6.7,8.6l2-1.3l4.5,1.9l0.4-6l-9-4.6L581.3,50z M587.6,54.9l-0.5-0.2L587.6,54.9z"/>
<polygon class="st7" points="490.2,76.8 489.4,73.9 485.5,67.9 479.5,68.7 479.7,77.4 480.6,79.4 482.5,81.3 489.9,81 492.3,77.6 
	"/>
<polygon class="st8" points="149.3,97 149.3,98 141.8,97.9 141.7,100.5 158.4,100.5 158.4,97.1 "/>
<polygon class="st4" points="595.1,49.7 596.3,50.6 598,50.4 596.3,48.3 595.5,47.5 594.4,49.2 "/>
<polygon class="st3" points="382.6,82.2 382.6,81.3 380.9,82 381.8,89.8 386.3,86.8 391.8,85.4 392,82.7 389.8,81.5 "/>
<polygon class="st3" points="183.9,100.5 187.1,100.5 185.2,96.5 "/>
<polygon class="st6" points="378.1,88.6 381.8,89.8 380.9,82 374.4,82.8 368.4,86.9 368.7,89.7 371.9,91.4 372.3,93.9 376.1,94.2 
	375,89.9 "/>
<polygon class="st8" points="299.3,92.4 296.5,92.4 296.3,90.4 287.4,90.9 287.6,94 288,100.5 299.5,100.5 298.8,99.9 "/>
<polygon class="st3" points="326.6,91.4 330.2,87.7 326.4,87.9 318.8,88.7 318.8,90.5 320.1,94.4 316.6,100.5 327.5,100.5 326,95.5 
	"/>
<polygon class="st8" points="342.1,94.2 341.3,86.6 335.4,87.2 336.2,100.5 339.4,100.5 342.6,99.8 "/>
<polygon class="st2" points="330.2,87.7 326.6,91.4 326,95.5 327.5,100.5 336.2,100.5 335.4,87.2 "/>
<polygon class="st6" points="503.4,65.4 501,66.7 494.4,73.5 493.4,75.4 498.3,80.4 500.6,78.2 504.4,78.7 507.5,73.9 508.3,70.5 
	505.9,66.5 "/>
<polygon class="st1" points="249.4,97.4 244.5,94.8 240.7,97.1 239.2,100.5 246.2,100.5 248.2,98.7 "/>
<polygon class="st2" points="407,80.3 402.3,83.3 399.4,84.2 401.9,92.7 409,90.4 407.2,82 "/>
<polygon class="st8" points="67.1,99.9 66.8,100.5 78.5,100.5 77.6,100 "/>
<polygon class="st7" points="24.2,99.2 24.1,100.5 39.1,100.5 39.1,99.5 "/>
<polygon class="st7" points="92.5,100.1 92.5,100.5 104.5,100.5 104.5,100 "/>
<polygon class="st5" points="565.9,59.6 565.3,64.4 568.7,67.2 570.3,67.3 575.5,60 569.3,55.1 568.1,58.4 "/>
<polygon class="st6" points="392,82.7 391.8,85.4 386.3,86.8 389.1,90 392.8,87.5 396,85.1 "/>
<polygon class="st3" points="318.8,90.5 308.7,91.5 309.3,100.5 316.6,100.5 320.1,94.4 "/>
<polygon class="st3" points="556.7,70.2 557.4,66.7 550.3,62.3 546.5,59.9 545.4,63.3 542.7,73.9 557.1,81 558.9,78.1 562.7,72.3 
	"/>
<polygon class="st8" points="307.6,91.6 299.3,92.4 298.8,99.9 299.5,100.5 309.3,100.5 308.7,91.5 "/>
<polygon class="st7" points="460.3,83.5 458.3,83.7 458.1,80.5 454.9,80.7 454.1,77.6 451.5,77.8 451.3,75.5 449.3,75.6 448.1,84.7 
	446.3,85.9 450.6,87.6 452.9,90.3 455.4,90.3 460.1,88.3 "/>
<polygon class="st4" points="596.3,50.6 598.3,52.2 598,50.4 "/>
<polygon class="st5" points="565.9,59.6 562.7,57.6 559,61.6 557.4,66.7 556.7,70.2 562.7,72.3 563.2,70.2 565.3,64.4 "/>
<polygon class="st5" points="368.7,89.7 368.4,86.9 365.4,87.5 363.2,90.3 363.9,95.9 365,96.3 366.3,94.6 372.3,93.9 371.9,91.4 
	"/>
<polygon class="st7" points="416.2,82.9 412.2,83.3 407.2,82 409,90.4 410.3,91.3 414.6,89.3 "/>
<polygon class="st1" points="275.7,95 275.9,98.1 276.1,100.5 288,100.5 287.6,94 "/>
<polygon class="st6" points="397,84.1 396,85.1 392.8,87.5 393.6,91 399.4,95.5 399.9,94.7 401.9,92.7 399.4,84.2 "/>
<polygon class="st3" points="365,96.3 363.9,95.9 363.2,90.3 360.5,89.4 352.7,90.4 352.1,93.1 352.9,100.5 361.4,100.5 361.3,99.3 
	"/>
<polygon class="st5" points="246.2,100.5 248.1,100.5 248.2,98.7 "/>
<polygon class="st6" points="422.1,86.8 416.2,82.9 414.6,89.3 416.7,92.7 418.8,93.7 424.3,90.5 423.7,86.6 "/>
<polygon class="st8" points="381.8,89.8 378.1,88.6 383.1,93.4 385.6,92.7 389.1,90 386.3,86.8 "/>
<polygon class="st3" points="446.3,85.9 443.4,79.8 439.8,81.3 440.1,82.8 437.2,89.6 443,92.7 447.2,92.8 450.6,87.6 "/>
<polygon class="st8" points="272.8,98.1 263.6,98.7 263.7,100.5 276.1,100.5 275.9,98.1 "/>
<polygon class="st1" points="528.7,83.9 528.1,82.6 530.6,77.7 530.7,72 530.8,69.3 526.4,67.4 525.2,74.3 521.3,78.3 518.9,78.2 
	516,81.7 513.4,83.7 513.9,87.9 514.4,91.8 517.5,93.7 525.5,91.7 525.9,87.4 "/>
<polygon class="st4" points="516,81.7 516.8,76.7 513.3,71.2 510.1,70.6 508.3,70.5 507.5,73.9 504.4,78.7 506.4,84.4 511.6,86.8 
	513.9,87.9 513.4,83.7 "/>
<polygon class="st8" points="375,89.9 376.1,94.2 376.3,96.4 379.6,97.1 383.1,93.4 378.1,88.6 "/>
<polygon class="st6" points="399.4,95.5 393.6,91 392.8,87.5 389.1,90 385.6,92.7 387.7,94.1 389.2,98 392,100.5 392.2,100.5 
	395.6,100.2 "/>
<polygon class="st6" points="439.8,81.3 436.9,85.5 433.9,85.9 426.9,83.9 423.7,86.6 424.3,90.5 426.4,93.6 430.1,94.9 433.4,96.6 
	436.3,95.4 435.7,92.5 437.2,89.6 440.1,82.8 "/>
<polygon class="st8" points="575.5,60 570.3,67.3 568.7,67.2 573.4,71.4 573.9,74.1 581.9,69.7 583.9,70.4 586.1,69.7 585.4,68.4 
	582.7,68.8 "/>
<polygon class="st4" points="598.3,55.7 594.5,64 597.1,67.8 600.5,64.5 600.5,57.2 599.6,58.1 "/>
<polygon class="st5" points="342.1,94.2 342.6,99.8 342.7,100.5 352.9,100.5 352.1,93.1 "/>
<polygon class="st7" points="468.8,79.6 466.2,81.7 467.1,86.4 467.8,89.8 469.9,93.3 471.6,91 471.7,88.4 476,85.3 474.6,81.1 
	475.9,79.6 473.6,78 "/>
<polygon class="st5" points="500.2,81.1 498.3,80.4 493.4,75.4 492.3,77.6 489.9,81 487.8,83.3 490.3,90.3 498,83.7 "/>
<polygon class="st6" points="563.2,70.2 564.6,73.9 569,76.5 570.2,77.6 573.9,74.1 573.4,71.4 568.7,67.2 565.3,64.4 "/>
<polygon class="st8" points="490.3,90.4 490.3,90.3 487.8,83.3 489.9,81 482.5,81.3 480.6,79.4 478,81.9 475.9,79.6 474.6,81.1 
	476,85.3 471.7,88.4 471.6,91 474.3,90.9 474.4,94.7 479.5,93.6 483.5,96.8 485.5,100.5 487.9,100.5 488.1,93.6 "/>
<polygon class="st7" points="410.3,91.3 412.3,94.4 415.6,94.7 416.7,92.7 414.6,89.3 "/>
<polygon class="st8" points="376.1,94.2 372.3,93.9 366.3,94.6 365,96.3 361.3,99.3 361.4,100.5 372.6,100.5 376.3,96.4 "/>
<polygon class="st7" points="462.2,82.9 460.3,83.5 460.1,88.3 455.4,90.3 462.7,95.7 464.5,91.5 467.8,89.8 467.1,86.4 "/>
<polygon class="st8" points="387.7,94.1 385.6,92.7 383.1,93.4 379.6,97.1 380.6,100.5 392,100.5 389.2,98 "/>
<polygon class="st8" points="533.9,72.9 530.7,72 530.6,77.7 528.1,82.6 528.7,83.9 536.8,85.6 538.6,84 540.7,76.6 536.1,75.8 "/>
<polygon class="st2" points="587.2,62.8 585.4,68.4 586.1,69.7 588.9,71.3 591.3,71.7 593.6,72.6 594.7,72.4 594.2,69.2 593.7,63.3 
	589.2,61.5 "/>
<polygon class="st5" points="412.3,94.4 410.3,91.3 409,90.4 401.9,92.7 399.9,94.7 403.1,98.6 403.6,100.5 407.4,100.5 410.2,97.8 
	"/>
<polygon class="st6" points="504.4,78.7 500.6,78.2 498.3,80.4 500.2,81.1 498,83.7 490.3,90.3 490.3,90.4 494.9,92.1 497.2,90.7 
	500.6,94.4 505.3,94.5 511.6,86.8 506.4,84.4 "/>
<polygon class="st5" points="339.4,100.5 342.7,100.5 342.6,99.8 "/>
<polygon class="st6" points="430.1,94.9 426.4,93.6 424.3,90.5 418.8,93.7 416.7,92.7 415.6,94.7 419.8,99.2 423.2,99.2 
	424.4,100.5 427.7,100.5 429.2,98.9 "/>
<polygon class="st4" points="376.3,96.4 372.6,100.5 380.6,100.5 379.6,97.1 "/>
<polygon class="st6" points="447.2,92.8 448.4,97.3 453.5,96.4 452.9,90.3 450.6,87.6 "/>
<polygon class="st5" points="441.5,100.1 445.3,100.1 448.4,97.3 447.2,92.8 443,92.7 437.2,89.6 435.7,92.5 436.3,95.4 433.4,96.6 
	436.4,100.5 436.7,100.5 438.4,97.9 "/>
<polygon class="st6" points="399.9,94.7 399.4,95.5 395.6,100.2 395.6,100.5 403.6,100.5 403.1,98.6 "/>
<polygon class="st1" points="564.6,73.9 563.2,70.2 562.7,72.3 558.9,78.1 567.3,79.9 569,76.5 "/>
<polygon class="st8" points="557.1,81 542.7,73.9 540.7,76.6 538.6,84 536.8,85.6 538.9,85.8 538.2,88.7 548.1,94 552.2,93.6 
	554.7,90.7 555.7,87 557,85.6 "/>
<polygon class="st3" points="415.6,94.7 412.3,94.4 410.2,97.8 412.6,100.5 418.9,100.5 419.8,99.2 "/>
<polygon class="st1" points="462.7,95.7 455.4,90.3 452.9,90.3 453.5,96.4 453.2,100.4 453.4,100.5 464.3,100.5 462.6,98.8 "/>
<polygon class="st8" points="594.2,69.2 594.7,72.4 596.2,72 600.5,74.3 600.5,66.1 596.6,68.9 "/>
<polygon class="st2" points="430.1,94.9 429.2,98.9 427.7,100.5 436.4,100.5 433.4,96.6 "/>
<polygon class="st6" points="573.9,74.1 570.2,77.6 569,76.5 567.3,79.9 572,80.9 574.7,79.7 578.9,80.1 583.9,70.4 581.9,69.7 "/>
<polygon class="st3" points="588.9,71.3 586.1,69.7 583.9,70.4 578.9,80.1 582.5,80.2 586.7,82.5 588.1,82.9 593.6,72.6 591.3,71.7 
	"/>
<polygon class="st8" points="474.4,94.7 474.3,90.9 471.6,91 469.9,93.3 467.8,89.8 464.5,91.5 462.7,95.7 462.6,98.8 464.3,100.5 
	472.6,100.5 472.2,97.1 "/>
<polygon class="st6" points="392.2,100.5 395.6,100.5 395.6,100.2 "/>
<polygon class="st5" points="407.4,100.5 412.6,100.5 410.2,97.8 "/>
<polygon class="st4" points="419.8,99.2 418.9,100.5 424.4,100.5 423.2,99.2 "/>
<polygon class="st1" points="572,80.9 567.3,79.9 558.9,78.1 557.1,81 557,85.6 555.7,87 562.9,96.9 566.6,94 570.2,85.8 "/>
<polygon class="st4" points="453.5,96.4 448.4,97.3 445.3,100.1 445.5,100.5 453.4,100.5 453.2,100.4 "/>
<polygon class="st5" points="536.8,85.6 528.7,83.9 525.9,87.4 525.5,91.7 523.6,96 526.8,95.4 528.5,97.3 535,97 538.2,88.7 
	538.9,85.8 "/>
<polygon class="st5" points="523.6,96 525.5,91.7 517.5,93.7 514.4,91.8 513.9,87.9 511.6,86.8 505.3,94.5 500.6,94.4 504.2,98.1 
	504,100.5 520.7,100.5 521.2,99.2 "/>
<polygon class="st5" points="441.5,100.1 438.4,97.9 436.7,100.5 445.5,100.5 445.3,100.1 "/>
<polygon class="st1" points="500.6,94.4 497.2,90.7 494.9,92.1 490.3,90.4 488.1,93.6 487.9,100.5 504,100.5 504.2,98.1 "/>
<polygon class="st8" points="594.7,72.4 593.6,72.6 588.1,82.9 593,85.8 595.9,88.9 597.4,88.3 600.5,84.6 600.5,77.7 600.1,77.3 
	600.5,76.1 600.5,74.3 596.2,72 "/>
<polygon class="st3" points="479.5,93.6 474.4,94.7 472.2,97.1 472.6,100.5 485.5,100.5 483.5,96.8 "/>
<polygon class="st8" points="600.5,77.7 600.5,76.1 600.1,77.3 "/>
<polygon class="st4" points="578.9,80.1 574.7,79.7 572,80.9 570.2,85.8 577.4,88 580.9,89.5 582.6,91.9 585.7,92.7 586.7,82.5 
	582.5,80.2 "/>
<polygon class="st1" points="548.3,97.1 548.1,94 538.2,88.7 535,97 535,100.5 545.1,100.5 545.8,97.8 "/>
<polygon class="st4" points="555.7,87 554.7,90.7 552.2,93.6 548.1,94 548.3,97.1 551.3,97.8 554,100.5 561.6,100.5 562.9,96.9 "/>
<polygon class="st2" points="597.4,88.3 595.9,88.9 593,85.8 588.1,82.9 586.7,82.5 585.7,92.7 590.3,92.6 595.6,92.6 597.1,95 
	600.5,95.9 600.5,90.8 599.3,90.6 "/>
<polygon class="st6" points="570.2,85.8 566.6,94 567.6,95.1 574,96.4 575.8,94 577.4,88 "/>
<polygon class="st8" points="528.5,97.3 526.8,95.4 523.6,96 521.2,99.2 520.7,100.5 530.7,100.5 530.9,100.2 532.9,100.5 
	535,100.5 535,97 "/>
<polygon class="st4" points="599.3,90.6 600.5,90.8 600.5,84.6 597.4,88.3 "/>
<polygon class="st8" points="580.9,89.5 577.4,88 575.8,94 578.8,96.7 582.1,97.2 582,95.3 590.6,97.8 590.3,92.6 585.7,92.7 
	582.6,91.9 "/>
<polygon class="st6" points="548.3,97.1 545.8,97.8 545.1,100.5 554,100.5 551.3,97.8 "/>
<polygon class="st6" points="530.7,100.5 532.9,100.5 530.9,100.2 "/>
<polygon class="st8" points="574,96.4 567.6,95.1 566.6,94 562.9,96.9 561.6,100.5 573.4,100.5 574.2,98.3 "/>
<polygon class="st2" points="575.8,94 574,96.4 574.2,98.3 573.4,100.5 578.6,100.5 578.8,96.7 "/>
<polygon class="st1" points="595.6,92.6 590.3,92.6 590.6,97.8 592.2,97.7 596.2,95.4 598.1,97.3 597.7,100.5 600.5,100.5 
	600.5,95.9 597.1,95 "/>
<polygon class="st4" points="582,95.3 582.1,97.2 578.8,96.7 578.6,100.5 588.6,100.5 590.6,97.8 "/>
<polygon class="st2" points="596.2,95.4 592.2,97.7 597.7,100.5 597.7,100.5 598.1,97.3 "/>
<polygon class="st3" points="590.6,97.8 588.6,100.5 597.7,100.5 592.2,97.7 "/>
</svg>
